<?xml version="1.0" standalone="no"?>
<!DOCTYPE svg PUBLIC "-//W3C//DTD SVG 20010904//EN"
 "http://www.w3.org/TR/2001/REC-SVG-20010904/DTD/svg10.dtd">
<svg version="1.0" xmlns="http://www.w3.org/2000/svg"
 width="624.000000pt" height="624.000000pt" viewBox="0 0 624.000000 624.000000"
 preserveAspectRatio="xMidYMid meet">

<g transform="translate(0.000000,624.000000) scale(0.100000,-0.100000)"
fill="#000000" stroke="none">
<path d="M0 6127 l0 -114 54 -26 c115 -57 207 -61 325 -16 45 17 87 36 94 42
38 36 167 129 167 120 0 -3 -12 -17 -27 -31 -18 -17 -23 -27 -15 -30 8 -2 -11
-29 -48 -69 -34 -36 -59 -68 -56 -71 6 -6 112 91 184 167 47 50 42 30 -10 -47
-24 -35 -29 -50 -24 -77 6 -30 9 -33 44 -33 40 0 52 10 52 46 0 12 4 22 9 22
5 0 7 -8 4 -19 -2 -10 4 -26 14 -36 17 -18 19 -23 22 -53 0 -7 6 -10 11 -7 6
3 13 -1 16 -9 3 -8 14 -18 25 -21 10 -4 18 -9 17 -13 -1 -4 3 -16 8 -27 5 -11
9 -99 9 -195 l0 -175 -80 2 c-77 1 -75 -7 5 -21 14 -2 33 -7 43 -11 11 -5 17
-2 17 6 1 11 3 10 9 -1 10 -16 15 -212 13 -443 l-2 -148 -192 2 c-106 1 -216
4 -244 6 l-51 5 -8 86 c-4 48 -7 128 -6 179 1 56 -2 94 -8 98 -6 3 -14 -2 -18
-11 -4 -10 -2 -19 5 -22 7 -2 12 -10 12 -18 0 -9 -4 -13 -8 -10 -9 6 -10 -7
-14 -474 -3 -319 2 -463 14 -418 5 14 5 48 2 75 -6 45 -5 47 9 28 15 -18 16
-2 17 207 0 264 -7 247 110 251 53 1 69 -1 65 -10 -3 -10 30 -13 149 -13 l154
0 6 -31 c3 -17 6 -66 6 -109 0 -64 3 -79 17 -84 26 -11 33 12 33 122 l0 102
68 0 c37 0 117 -3 178 -6 l110 -7 -1 -46 c0 -25 -4 -56 -9 -68 -4 -13 -4 -28
0 -35 10 -16 13 -67 4 -73 -9 -6 -6 -57 4 -73 15 -24 9 -85 -9 -98 -10 -7 -21
-11 -26 -9 -14 9 -21 -15 -9 -30 7 -8 10 -20 7 -27 -2 -7 5 -23 16 -35 11 -12
17 -29 14 -37 -6 -15 -18 -19 -89 -31 -49 -8 -49 -25 0 -26 20 -1 46 -3 57 -4
96 -14 115 -15 115 -6 0 6 6 8 13 5 17 -6 34 14 39 46 2 20 9 25 31 25 19 -1
26 3 22 13 -3 7 -5 17 -5 22 0 4 -8 6 -18 3 -16 -4 -19 2 -20 36 -1 23 2 41 7
41 27 0 41 -15 41 -41 0 -16 5 -29 10 -29 6 0 10 7 10 15 0 17 25 20 35 5 3
-5 1 -10 -4 -10 -6 0 -11 -8 -11 -17 0 -14 2 -15 9 -4 5 7 14 11 20 7 6 -4 13
5 17 21 7 24 8 25 15 8 6 -18 8 -18 14 -4 4 11 14 15 26 12 18 -5 19 -2 13 36
-6 36 -4 41 13 41 10 0 24 -5 31 -12 7 -7 12 -8 12 -2 0 5 13 17 29 27 21 12
27 23 24 39 -5 31 13 59 26 39 13 -20 24 21 16 59 -4 19 -3 30 4 30 6 0 11 -7
11 -16 0 -10 6 -14 14 -11 7 3 18 1 22 -3 5 -5 15 -5 24 1 11 8 12 12 3 16
-18 7 -16 43 2 43 10 0 15 10 15 34 0 29 3 33 20 29 14 -4 20 0 20 11 0 10 -5
14 -11 10 -7 -4 -9 1 -5 15 3 11 9 30 12 41 3 13 1 20 -8 20 -8 1 -5 7 7 17
19 15 19 15 -8 9 -25 -6 -27 -4 -24 18 4 31 17 46 17 20 1 -37 21 13 26 62 5
54 -2 70 -22 53 -11 -9 -14 -7 -14 9 0 12 -4 23 -9 26 -5 3 -11 15 -14 26 -3
11 -1 18 3 15 20 -12 18 15 -1 29 -13 9 -19 21 -16 30 3 8 1 16 -5 18 -7 3 -4
16 7 38 11 20 17 51 16 72 -2 26 4 43 18 57 15 15 20 28 15 46 -4 16 -2 25 6
25 8 0 11 11 8 30 -3 17 -1 33 4 36 4 3 8 0 8 -6 0 -6 4 -9 9 -5 17 10 24 -18
8 -30 -10 -7 -20 -26 -23 -44 -5 -25 -4 -30 8 -26 9 4 18 0 21 -7 2 -8 18 -13
33 -13 34 2 43 27 20 51 -20 19 -20 43 -2 69 8 12 10 28 6 40 -4 11 -4 33 1
48 13 47 8 127 -9 127 -11 0 -12 3 -3 14 8 9 16 83 21 192 9 162 16 209 27
177 2 -7 10 -10 17 -7 8 3 17 -3 21 -13 4 -10 9 -134 12 -276 3 -142 10 -260
14 -263 10 -6 10 -6 14 136 6 177 18 275 35 272 29 -5 65 -27 92 -56 17 -18
37 -28 55 -28 15 0 33 -8 40 -17 8 -9 12 -11 11 -6 -2 6 2 11 7 13 6 2 15 -23
21 -55 l11 -58 3 65 c2 50 4 58 9 32 7 -37 24 -47 29 -17 6 28 31 55 47 48 10
-3 16 7 20 34 10 57 12 60 23 33 9 -24 10 -24 18 -5 12 33 45 76 54 70 4 -3
10 4 13 14 3 11 17 22 35 26 19 4 32 14 36 28 5 18 8 20 16 7 7 -11 10 -8 10
17 0 33 19 58 21 26 0 -10 3 -13 6 -5 2 6 13 12 24 12 11 0 24 10 29 23 7 17
9 18 9 5 1 -22 21 -24 21 -2 0 11 6 14 23 8 12 -4 26 -12 30 -18 6 -8 10 -8
14 2 2 6 12 12 21 12 9 0 26 9 38 21 22 20 23 20 41 2 10 -10 40 -28 65 -41
26 -12 48 -27 50 -31 2 -5 12 -11 23 -13 11 -1 25 -14 32 -28 6 -14 12 -19 12
-10 1 24 49 22 57 -2 4 -14 9 -17 16 -10 6 6 17 8 24 5 8 -3 14 1 14 8 1 10 5
8 14 -4 13 -17 15 -17 24 -1 9 15 11 15 31 -5 18 -18 25 -20 37 -10 13 10 17
10 25 -2 5 -8 9 -17 9 -20 0 -4 14 -12 30 -19 17 -7 30 -16 30 -21 0 -18 18
-8 23 12 4 13 10 18 17 14 7 -4 16 -2 20 5 5 8 10 3 14 -14 6 -24 26 -37 26
-17 0 5 11 9 25 9 18 0 25 -6 25 -19 0 -21 19 -27 21 -6 0 6 5 -3 10 -20 5
-18 14 -33 20 -33 5 0 20 -11 32 -24 12 -13 25 -24 30 -25 4 0 8 -1 10 -2 25
-8 57 -7 57 2 0 8 4 8 15 -1 8 -7 15 -9 15 -4 0 4 5 3 11 -3 8 -8 7 -17 -3
-32 -12 -20 -10 -24 12 -41 35 -27 67 -26 73 3 2 12 5 2 6 -23 2 -43 18 -134
20 -116 2 14 41 -25 41 -41 0 -7 5 -13 10 -13 6 0 10 -16 10 -35 0 -19 5 -35
10 -35 6 0 10 -7 10 -15 0 -8 6 -15 14 -15 7 0 16 -13 20 -30 3 -19 12 -30 22
-30 13 0 14 -3 5 -14 -9 -11 -8 -15 6 -21 10 -5 23 -7 29 -6 7 1 14 -25 19
-66 4 -38 10 -72 15 -78 9 -12 19 -75 11 -75 -9 0 -5 -155 3 -169 5 -8 12 -9
19 -2 15 11 71 -34 62 -49 -4 -6 -11 -7 -17 -4 -6 4 -8 -1 -4 -14 4 -12 1 -26
-9 -35 -14 -15 -14 -17 5 -27 11 -6 25 -8 30 -5 6 3 10 -5 10 -20 0 -15 4 -24
10 -20 5 3 10 2 10 -3 0 -5 -9 -12 -21 -15 -19 -5 -20 -10 -15 -76 5 -51 3
-71 -5 -71 -8 0 -6 -7 4 -18 10 -10 17 -27 17 -37 0 -10 2 -16 5 -13 8 8 65
-51 65 -67 0 -20 51 -50 60 -35 4 7 10 -2 14 -24 4 -20 13 -36 20 -36 8 0 16
-9 19 -20 3 -11 12 -20 21 -20 9 0 16 -5 16 -11 0 -5 5 -7 11 -3 11 7 59 -14
71 -31 4 -6 8 -2 8 9 0 15 3 16 15 6 10 -9 15 -9 15 -1 0 6 7 11 15 11 8 0 15
-4 15 -10 0 -5 6 -10 14 -10 8 0 17 -6 19 -12 3 -7 6 -4 6 6 1 19 1 19 14 1
10 -12 16 -14 21 -7 5 8 16 3 34 -17 16 -17 47 -33 77 -41 28 -7 55 -19 61
-26 6 -8 30 -15 53 -16 22 -1 41 -5 41 -10 0 -4 9 -3 20 4 17 11 23 9 48 -15
16 -15 39 -27 54 -27 15 0 30 -5 33 -10 4 -6 15 -8 26 -5 14 5 22 0 28 -17 6
-13 10 -19 10 -15 1 5 14 -1 30 -12 16 -12 36 -21 45 -21 9 0 16 -6 16 -14 0
-8 7 -16 15 -20 8 -3 15 -13 15 -22 0 -8 5 -14 12 -12 6 2 20 -3 29 -11 35
-32 48 -41 58 -41 5 0 17 -10 25 -22 9 -12 16 -17 16 -10 0 6 4 12 9 12 4 0
11 -18 14 -41 5 -37 30 -72 59 -81 7 -3 11 -47 10 -124 -1 -68 2 -113 7 -105
5 7 6 22 4 32 -3 10 0 19 6 19 16 0 13 -46 -4 -60 -8 -7 -15 -20 -15 -30 0
-11 -7 -17 -17 -16 -14 1 -17 -5 -15 -29 2 -16 8 -32 13 -34 6 -1 2 -12 -8
-23 -13 -15 -15 -22 -5 -25 6 -3 12 -10 12 -16 0 -5 -3 -7 -6 -4 -4 4 -16 -13
-26 -36 -11 -23 -24 -50 -29 -59 -5 -10 -5 -19 1 -23 6 -3 10 2 10 11 0 16 1
16 18 1 10 -9 35 -17 57 -18 48 -3 65 -14 66 -43 0 -11 3 -15 6 -8 2 6 11 12
19 12 15 0 16 3 15 70 l0 45 10 -40 c11 -47 29 -70 29 -37 0 16 4 20 16 15 14
-5 16 -2 10 20 -4 19 -3 27 7 27 8 0 22 9 32 20 17 19 18 19 56 0 48 -25 69
-81 49 -129 -10 -25 -27 -36 -103 -67 -85 -34 -100 -37 -197 -38 -73 0 -126 5
-175 18 l-71 19 -61 -28 -61 -28 35 -29 c47 -37 57 -36 15 2 -18 17 -29 30
-25 30 15 0 68 -38 140 -98 40 -34 85 -64 100 -68 26 -7 25 -4 -19 39 l-46 46
25 16 c13 9 31 14 39 11 8 -3 14 -1 14 4 0 6 37 7 94 3 159 -10 271 37 330
141 31 52 39 96 27 129 -13 32 -77 77 -112 77 -18 0 -28 6 -32 19 -6 25 0 31
34 31 15 0 31 5 34 10 4 6 10 8 15 5 5 -3 11 -1 15 4 3 6 19 8 35 6 19 -2 33
2 38 11 8 13 10 13 21 0 10 -12 11 -23 2 -48 -8 -23 -8 -34 0 -39 6 -3 13 -39
14 -79 3 -59 1 -71 -11 -66 -9 3 -14 -1 -14 -13 0 -10 -11 -35 -25 -56 -14
-20 -26 -52 -27 -71 -1 -25 -6 -34 -19 -34 -9 0 -19 -7 -23 -15 -3 -8 -10 -14
-15 -13 -5 2 -17 -6 -25 -17 -14 -17 -17 -18 -27 -5 -11 15 -9 4 7 -50 4 -12
2 -20 -5 -20 -6 0 -11 -6 -11 -14 0 -8 -4 -18 -10 -21 -6 -4 -8 12 -4 44 4 43
3 51 -11 51 -12 0 -15 -6 -10 -19 3 -11 -3 -33 -15 -53 -11 -18 -20 -41 -20
-50 0 -10 -6 -18 -13 -18 -17 0 -16 -128 2 -253 11 -71 11 -90 0 -103 -12 -15
-30 -111 -31 -162 0 -16 -5 -22 -14 -18 -10 4 -14 -3 -15 -19 -1 -14 -3 -29
-4 -35 -1 -5 -4 -22 -5 -37 l-2 -28 -8 30 -8 30 -1 -32 c0 -18 -5 -33 -11 -33
-5 0 -7 -13 -3 -30 3 -19 1 -30 -6 -30 -6 0 -11 -8 -11 -19 0 -23 -23 -43 -47
-41 -10 1 -22 1 -28 0 -5 -1 -16 -3 -24 -4 -8 0 -19 -17 -24 -36 -9 -35 -9
-35 -19 -10 -7 19 -11 21 -18 11 -4 -8 -6 -20 -3 -28 4 -9 -4 -13 -26 -13 -17
0 -31 5 -31 10 0 6 -6 10 -14 10 -8 0 -17 6 -20 13 -3 6 -3 0 0 -16 4 -16 2
-27 -5 -27 -6 0 -11 5 -11 10 0 15 -18 12 -38 -8 -10 -9 -30 -23 -45 -31 -27
-14 -36 -31 -17 -31 6 0 10 -9 10 -19 0 -15 -5 -18 -21 -14 -18 5 -20 3 -14
-17 5 -15 3 -20 -3 -16 -6 3 -13 2 -17 -3 -8 -14 6 -91 17 -91 6 0 8 10 5 23
-4 12 -2 29 3 37 7 11 10 7 10 -16 0 -23 5 -33 20 -37 11 -3 22 -5 24 -4 2 1
13 -7 25 -17 15 -13 21 -31 21 -59 0 -33 2 -38 14 -28 12 10 14 4 14 -42 -1
-64 12 -96 23 -57 5 16 7 4 7 -35 -1 -72 17 -141 37 -149 8 -3 15 -12 15 -20
0 -9 6 -13 14 -10 20 8 45 -22 78 -94 16 -35 36 -66 43 -68 8 -3 17 -14 20
-25 4 -10 13 -19 21 -19 8 0 14 -9 14 -21 0 -12 18 -38 41 -59 29 -26 40 -43
36 -55 -4 -9 -3 -14 2 -10 11 6 81 -57 81 -73 0 -6 7 -9 15 -6 11 4 15 -1 16
-17 0 -20 3 -18 14 11 l13 35 7 -53 c5 -35 11 -49 16 -40 7 10 9 9 9 -5 0 -9
9 -25 20 -34 11 -10 20 -21 20 -26 0 -5 9 -20 20 -34 l19 -24 8 30 c8 30 9 31
31 16 12 -9 22 -25 22 -35 0 -20 40 -38 58 -27 4 3 9 -13 11 -36 1 -23 6 -44
10 -47 4 -3 13 -14 20 -25 11 -18 12 -17 8 13 -2 19 2 37 10 44 10 8 10 14 2
24 -6 8 -7 14 -2 14 21 0 40 -35 32 -60 -6 -21 -7 -21 -8 -5 -1 17 -3 17 -11
5 -15 -23 -12 -43 5 -36 20 7 19 -4 -2 -20 -17 -12 -17 -14 0 -31 16 -17 17
-16 17 2 0 32 13 7 17 -33 2 -20 10 -52 19 -69 8 -18 16 -46 17 -62 1 -16 10
-34 20 -40 16 -11 17 96 17 2178 0 2173 0 2188 -20 2214 -11 14 -20 32 -20 39
0 8 -11 25 -25 38 -20 19 -27 21 -40 10 -8 -7 -15 -24 -15 -39 0 -40 -33 -124
-50 -128 -9 -2 -22 -13 -29 -25 -7 -11 -8 -17 -2 -13 17 10 14 1 -26 -75 -24
-46 -48 -77 -65 -86 -16 -8 -28 -11 -28 -7 -5 131 -8 721 -3 781 6 79 7 83 38
102 29 18 45 20 126 16 52 -3 102 -5 111 -5 14 -1 18 -13 20 -78 2 -50 7 -78
16 -81 9 -3 12 108 12 532 l0 536 -3120 0 -3120 0 0 -113z m340 93 c0 -5 -8
-14 -17 -19 -10 -6 -16 -11 -13 -11 31 -7 41 -7 46 1 3 5 10 7 15 4 5 -4 12 1
15 9 8 20 30 21 38 1 3 -8 12 -12 21 -9 10 4 15 0 15 -10 0 -9 -7 -19 -15 -22
-8 -4 -12 -10 -9 -15 9 -16 45 -10 96 16 60 30 58 30 58 5 0 -13 -10 -22 -35
-29 -19 -5 -49 -20 -67 -33 -18 -12 -66 -35 -108 -51 -66 -24 -70 -27 -30 -21
51 7 48 7 78 5 30 -1 28 -13 -6 -33 -61 -36 -123 -50 -189 -43 -58 6 -93 23
-65 33 27 9 9 31 -43 52 -31 12 -58 27 -61 32 -4 6 4 20 18 32 21 21 31 22
110 18 109 -6 221 5 215 21 -2 7 -20 12 -39 12 -20 0 -40 3 -44 8 -4 4 -22 7
-41 7 -33 0 -33 0 -17 25 11 17 25 25 45 25 16 0 29 -4 29 -10z m694 -138 c50
-14 93 -29 96 -32 3 -3 14 -5 24 -5 11 0 21 -6 24 -14 9 -26 -96 -4 -185 38
-46 22 -83 43 -83 47 0 3 8 3 17 0 9 -4 57 -19 107 -34z m-163 -58 c33 -36
125 -106 187 -143 59 -35 138 -59 200 -63 42 -2 72 -18 35 -18 -14 0 -15 -2
-4 -9 18 -11 -33 -27 -115 -35 -48 -5 -64 -3 -74 9 -7 8 -20 15 -29 15 -73 0
-243 171 -275 277 -7 21 -6 21 22 8 15 -8 39 -26 53 -41z m360 12 c-11 -27
-25 -33 -36 -16 -6 10 33 55 41 47 3 -2 0 -16 -5 -31z m42 -121 c-1 -5 -11
-11 -23 -13 -11 -2 -20 -8 -20 -13 0 -15 -47 -10 -53 6 -7 17 8 29 25 19 7 -5
8 -3 4 5 -6 9 2 11 30 9 22 -2 38 -7 37 -13z m434 -400 c3 -176 1 -317 -3
-313 -4 5 -6 28 -6 53 2 32 -2 44 -10 43 -10 -2 -13 22 -14 97 0 55 -1 152 -2
215 -1 63 1 156 5 205 12 168 25 40 30 -300z m-725 207 c10 -8 45 -29 79 -46
56 -29 63 -36 75 -76 8 -25 15 -64 17 -87 1 -23 6 -45 10 -49 4 -4 7 -11 7
-16 0 -9 -112 -11 -187 -2 l-53 7 0 87 c0 48 3 115 6 148 7 63 10 65 46 34z
m1008 -4 c0 -7 -4 -19 -9 -27 -11 -17 -23 1 -15 23 7 19 24 21 24 4z m-800
-19 c0 -5 -4 -9 -10 -9 -5 0 -10 7 -10 16 0 8 5 12 10 9 6 -3 10 -10 10 -16z
m50 -89 c0 -5 -4 -10 -10 -10 -5 0 -10 5 -10 10 0 6 5 10 10 10 6 0 10 -4 10
-10z m4 -42 c13 -45 18 -218 6 -218 -6 0 -8 5 -5 10 4 6 2 16 -3 23 -5 7 -14
37 -20 67 -6 30 -14 67 -18 82 -3 15 -4 34 0 43 8 23 33 18 40 -7z m732 -165
c-10 -10 -19 5 -10 18 6 11 8 11 12 0 2 -7 1 -15 -2 -18z m-839 -2 c35 -2 49
-24 63 -102 7 -41 29 -150 50 -242 20 -93 35 -179 32 -193 l-4 -24 -174 0
-174 0 0 283 c0 156 2 286 4 288 3 2 44 1 93 -3 48 -3 98 -7 110 -7z m131
-116 c0 -16 -2 -15 -8 5 -11 34 -11 60 0 35 5 -11 8 -29 8 -40z m4628 -392
c-3 -230 -5 -426 -6 -435 0 -10 -4 -18 -10 -18 -6 0 -9 40 -8 103 1 56 -2 242
-7 412 -6 234 -5 316 4 333 30 57 33 21 27 -395z m-779 325 c-2 -13 -4 -3 -4
22 0 25 2 35 4 23 2 -13 2 -33 0 -45z m313 42 c14 0 32 -58 25 -80 -4 -12 -9
-19 -12 -16 -3 3 -16 -6 -29 -21 -15 -17 -29 -24 -42 -21 -16 4 -19 1 -15 -16
4 -17 3 -18 -6 -6 -10 13 -11 13 -12 0 0 -8 -5 -4 -9 10 l-8 25 -2 -25 -2 -25
-8 25 c-11 35 -12 108 -1 114 5 4 11 2 13 -4 6 -18 49 2 59 27 6 17 14 23 25
19 9 -3 19 -6 24 -6z m-350 -41 c0 -4 -7 -9 -15 -13 -11 -4 -15 2 -15 26 0 30
1 31 15 12 8 -10 15 -22 15 -25z m-3363 -76 c-3 -10 -5 -2 -5 17 0 19 2 27 5
18 2 -10 2 -26 0 -35z m2483 -174 c0 -11 -4 -17 -10 -14 -5 3 -10 13 -10 21 0
8 5 14 10 14 6 0 10 -9 10 -21z m-2370 -370 c0 -5 -4 -9 -10 -9 -5 0 -10 7
-10 16 0 8 5 12 10 9 6 -3 10 -10 10 -16z m-153 -141 c-3 -7 -5 -2 -5 12 0 14
2 19 5 13 2 -7 2 -19 0 -25z m43 8 c0 -3 -4 -8 -10 -11 -5 -3 -10 -1 -10 4 0
6 5 11 10 11 6 0 10 -2 10 -4z m3990 -1176 c0 -5 -5 -10 -11 -10 -5 0 -7 5 -4
10 3 6 8 10 11 10 2 0 4 -4 4 -10z m312 -30 c-6 -41 -12 -38 -12 6 0 19 4 33
8 30 5 -3 7 -19 4 -36z m-455 -17 c-3 -10 -5 -4 -5 12 0 17 2 24 5 18 2 -7 2
-21 0 -30z m83 -213 c21 -2 20 -3 -10 -11 -36 -8 -110 -2 -110 10 0 6 52 6
120 1z m-85 -1009 c3 -5 1 -12 -5 -16 -5 -3 -10 1 -10 9 0 18 6 21 15 7z m58
-6 c4 -8 2 -17 -3 -20 -6 -4 -10 3 -10 14 0 25 6 27 13 6z m-33 -25 c0 -5 -2
-10 -4 -10 -3 0 -8 5 -11 10 -3 6 -1 10 4 10 6 0 11 -4 11 -10z m-220 -371 c0
-6 -4 -7 -10 -4 -5 3 -10 11 -10 16 0 6 5 7 10 4 6 -3 10 -11 10 -16z m600
-829 c0 -5 -5 -10 -11 -10 -5 0 -7 5 -4 10 3 6 8 10 11 10 2 0 4 -4 4 -10z
m219 -279 c-15 -5 -22 6 -14 19 6 9 10 9 16 -1 5 -8 4 -15 -2 -18z"/>
<path d="M215 6020 c4 -6 11 -8 16 -5 14 9 11 15 -7 15 -8 0 -12 -5 -9 -10z"/>
<path d="M2995 6033 c11 -3 26 -12 33 -21 6 -9 12 -11 12 -6 0 17 -23 34 -44
33 -21 -1 -21 -1 -1 -6z"/>
<path d="M2878 5993 c7 -3 16 -2 19 1 4 3 -2 6 -13 5 -11 0 -14 -3 -6 -6z"/>
<path d="M0 5952 c0 -25 9 -32 89 -71 103 -50 204 -66 255 -39 l28 14 -40 -2
c-22 -1 -45 -5 -52 -9 -15 -9 -100 3 -100 15 0 4 -21 16 -46 26 -57 22 -127
71 -119 84 3 6 1 10 -4 10 -6 0 -11 -13 -11 -28z"/>
<path d="M3000 5953 c-14 -3 -59 -16 -100 -31 -67 -24 -84 -35 -161 -112 -47
-47 -98 -104 -114 -127 -15 -24 -34 -43 -41 -43 -7 0 -47 -33 -89 -74 -41 -41
-83 -77 -92 -79 -10 -2 -6 -3 10 -2 40 2 33 -10 -30 -54 -101 -69 -198 -191
-210 -264 -3 -21 -12 -41 -19 -44 -10 -4 -9 -11 5 -31 10 -15 38 -58 62 -97
24 -38 67 -100 97 -137 l53 -68 -15 -56 c-14 -55 -35 -94 -23 -44 3 14 8 39
11 55 5 27 5 27 -5 -3 -9 -30 -12 -32 -26 -20 -12 9 -15 9 -9 1 8 -14 -60
-143 -75 -143 -5 0 -21 -24 -36 -52 -27 -53 -29 -59 -32 -78 0 -5 -22 -30 -48
-55 -27 -25 -43 -45 -38 -45 14 1 64 48 105 100 19 25 40 51 47 58 7 7 13 18
13 24 0 6 3 9 6 6 3 -4 -2 -20 -10 -36 -9 -17 -13 -39 -10 -49 5 -15 4 -16 -5
-3 -9 13 -11 13 -11 -2 0 -9 6 -21 14 -25 12 -7 11 -21 -7 -93 -13 -47 -25
-89 -29 -95 -3 -5 -9 -25 -13 -43 -3 -18 -15 -37 -26 -43 -11 -5 -24 -21 -29
-35 -6 -14 -14 -22 -20 -19 -5 3 -10 -1 -10 -9 0 -17 -15 -22 -24 -8 -8 14 22
128 44 164 11 18 20 45 20 61 0 15 5 27 11 27 6 0 9 6 6 14 -3 7 0 19 6 25 6
6 8 14 4 18 -8 8 -82 -68 -79 -80 1 -5 -2 -5 -8 -2 -6 4 -19 0 -28 -8 -23 -20
-176 -102 -234 -126 -16 -6 -28 -17 -28 -26 0 -8 -3 -15 -8 -15 -4 0 -21 -12
-38 -27 -52 -48 -99 -87 -134 -113 -19 -14 -48 -37 -64 -51 -17 -14 -50 -38
-73 -53 -24 -14 -43 -30 -43 -35 0 -5 -12 -12 -27 -16 -16 -3 -35 -13 -43 -20
-8 -7 -49 -31 -90 -53 -41 -21 -91 -49 -110 -60 -19 -12 -83 -47 -142 -79 -59
-31 -106 -59 -104 -60 6 -6 152 52 175 69 13 10 29 18 35 18 6 -1 -2 -8 -17
-16 -16 -9 -27 -17 -25 -20 13 -13 245 69 358 126 33 17 60 26 60 21 0 -17
-187 -187 -265 -240 -127 -87 -275 -215 -337 -293 -45 -58 -27 -46 48 32 37
39 71 70 76 70 4 0 29 15 55 33 27 18 82 48 123 66 41 18 96 44 123 57 26 13
47 22 47 19 0 -3 -15 -19 -32 -36 -18 -17 -32 -38 -30 -46 2 -9 -1 -12 -8 -8
-8 5 -10 1 -6 -12 7 -21 -13 -52 -59 -92 -72 -64 -96 -91 -89 -102 5 -8 3 -9
-5 -5 -15 10 -85 -62 -113 -115 -11 -22 -24 -39 -29 -39 -5 0 -9 -5 -9 -10 0
-12 53 -1 58 12 2 4 11 8 20 8 23 1 56 22 60 39 10 48 230 275 256 265 13 -5
13 -10 5 -27 l-12 -22 20 20 c11 11 18 24 15 29 -3 5 0 6 6 2 6 -4 8 -14 5
-23 -5 -12 -3 -14 8 -8 12 8 12 6 0 -8 -7 -9 -16 -15 -20 -13 -4 3 -7 -4 -7
-14 0 -18 2 -18 24 3 83 77 218 257 320 428 53 88 61 106 40 93 -7 -4 -8 -3
-4 5 4 6 12 9 17 6 5 -4 9 1 9 9 0 22 174 316 187 316 3 0 -1 -10 -9 -22 -64
-101 -122 -205 -135 -245 -9 -27 -21 -55 -28 -63 -13 -16 -44 -71 -96 -165
-40 -74 -101 -165 -140 -209 -25 -30 -28 -38 -19 -61 7 -18 15 -25 25 -21 8 3
17 1 20 -4 3 -6 -16 -23 -42 -40 -26 -16 -57 -36 -68 -45 -33 -26 -38 -16 -9
19 56 65 64 76 64 91 0 7 -40 -27 -90 -77 -49 -50 -86 -96 -83 -101 4 -6 1 -7
-6 -2 -8 4 -23 -3 -39 -17 -15 -13 -45 -37 -67 -53 -54 -40 -65 -51 -57 -60 4
-5 1 -5 -6 -1 -20 12 -36 -4 -17 -17 13 -10 12 -12 -10 -13 -14 -1 -22 2 -19
7 3 5 -2 6 -10 3 -9 -3 -14 -9 -12 -13 3 -4 -3 -7 -12 -8 -9 -1 -39 -9 -66
-19 -36 -13 -45 -19 -32 -24 16 -5 16 -7 -3 -24 -41 -37 -20 -66 32 -45 30 11
136 76 147 89 3 3 22 16 44 28 21 13 71 47 111 77 40 30 77 55 81 55 5 0 23
12 39 28 16 15 33 26 37 24 5 -1 8 2 8 7 0 5 9 12 19 16 11 3 23 16 27 28 8
24 17 34 61 65 37 26 43 27 43 6 0 -13 6 -11 26 10 15 14 32 26 38 26 16 -1
-145 -151 -238 -221 -43 -33 -96 -76 -117 -96 -38 -35 -103 -83 -113 -83 -3 0
-26 -14 -51 -31 -25 -17 -53 -32 -63 -34 -9 -1 -16 -7 -15 -12 1 -5 -7 -10
-18 -10 -26 -2 -69 -43 -69 -65 0 -10 -14 -33 -31 -53 -18 -20 -28 -39 -24
-43 4 -4 10 -1 12 6 3 6 9 12 14 12 5 0 2 -11 -7 -25 -26 -39 -85 -96 -94 -90
-5 3 -12 0 -16 -6 -4 -8 -3 -9 4 -5 21 13 13 -2 -40 -71 -167 -220 -232 -376
-198 -478 19 -58 116 -147 195 -179 76 -30 110 -35 47 -6 -52 24 -105 60 -98
67 3 3 52 -16 110 -41 58 -26 122 -49 143 -52 l38 -6 -45 30 c-70 45 -134 116
-170 188 -28 54 -34 79 -38 148 -2 46 1 106 7 135 22 103 87 232 183 366 17
23 16 -6 -2 -57 -54 -153 -47 -356 16 -458 9 -15 13 -17 10 -6 -33 102 -33
255 -1 376 16 59 60 160 69 160 2 0 -3 -28 -12 -62 -10 -43 -16 -107 -16 -198
0 -125 2 -140 28 -201 34 -83 82 -140 141 -168 24 -11 47 -21 50 -21 2 0 -7
16 -20 36 -66 97 -97 274 -76 438 25 193 146 474 225 522 22 13 28 14 23 3 -3
-8 -26 -59 -51 -114 -58 -127 -77 -201 -77 -296 -1 -106 26 -178 94 -249 29
-30 70 -81 91 -113 21 -31 59 -75 85 -96 71 -59 125 -83 81 -36 -32 34 -15 31
53 -10 66 -40 84 -45 41 -13 -16 12 -41 33 -57 47 -15 13 -34 26 -43 27 -27 4
-53 35 -86 102 -30 61 -33 74 -36 192 -4 126 13 258 39 298 8 14 9 12 5 -10
-8 -38 -26 -261 -21 -266 3 -3 10 48 18 133 1 17 8 -12 15 -63 23 -166 78
-283 190 -397 74 -76 162 -145 185 -145 9 0 18 -4 21 -9 6 -10 -37 -29 -154
-66 -148 -48 -301 -137 -384 -224 -25 -26 -28 -35 -24 -78 l5 -49 -81 -18
c-45 -10 -101 -22 -125 -27 -24 -5 -46 -11 -48 -13 -6 -6 50 -166 58 -166 4 0
43 19 86 42 l78 42 -33 -39 c-142 -169 -256 -311 -297 -370 -28 -38 -63 -89
-80 -111 -16 -23 -72 -100 -124 -173 -52 -72 -98 -131 -102 -131 -11 0 -27
162 -19 205 4 19 18 -40 19 -80 2 -37 3 -39 16 -21 8 11 11 22 7 25 -11 7 -25
91 -16 91 4 0 13 -8 20 -17 12 -16 13 -15 14 15 0 24 -4 32 -17 33 -14 0 -13
3 5 11 17 9 22 17 18 34 -3 12 -2 33 3 46 8 21 9 19 15 -18 6 -35 11 -42 31
-42 23 1 24 4 27 67 2 47 7 66 16 66 8 0 19 8 26 17 7 10 15 16 17 13 3 -2 11
16 18 41 9 30 18 43 27 40 7 -3 20 1 28 9 8 8 21 15 30 15 18 0 31 34 27 73
-1 15 2 33 7 40 5 7 12 26 15 42 3 17 8 37 12 47 4 11 1 17 -11 20 -17 3 -17
4 0 21 12 11 18 33 18 62 0 25 4 45 10 45 6 0 8 9 5 19 -3 14 -1 18 10 14 12
-5 14 -1 9 15 -4 11 -2 23 4 27 5 3 10 0 10 -7 0 -10 3 -9 9 1 8 12 12 12 25
2 13 -11 16 -11 16 3 0 10 15 19 45 27 34 9 45 16 45 31 0 10 4 17 9 13 5 -3
11 9 13 27 2 20 8 32 16 31 6 -2 12 2 12 8 0 7 11 22 25 35 33 31 33 64 0 64
-18 0 -25 5 -25 20 0 28 -20 25 -20 -2 -1 -20 -2 -20 -15 7 -7 17 -14 26 -14
21 -1 -5 -11 2 -24 16 -19 21 -25 23 -36 11 -7 -8 -17 -26 -21 -41 -5 -16 -9
-20 -9 -9 -1 20 -12 22 -29 5 -9 -9 -12 -1 -13 37 -1 51 -2 51 -14 0 -7 -27
-8 -28 -15 -10 -6 15 -9 8 -9 -25 -1 -33 2 -41 9 -30 8 13 10 12 10 -3 0 -30
-19 -57 -35 -51 -9 4 -15 0 -15 -9 0 -8 -6 -20 -14 -26 -11 -10 -17 -8 -25 6
-9 16 -10 14 -11 -10 0 -23 -3 -27 -24 -23 -13 2 -33 9 -44 15 -11 6 -28 8
-36 5 -9 -4 -23 0 -32 7 -14 11 -18 10 -30 -6 -11 -15 -14 -16 -14 -3 0 12
-10 15 -43 13 -24 -2 -54 -6 -65 -10 -20 -6 -22 -3 -22 29 0 20 -4 36 -10 36
-5 0 -10 -10 -10 -21 0 -18 -2 -19 -15 -9 -13 11 -15 8 -16 -16 -2 -27 -2 -27
-6 -4 -3 13 -12 30 -21 37 -14 10 -14 14 -4 21 11 8 11 10 -2 15 -13 5 -16 -2
-17 -41 -1 -26 -4 -37 -6 -24 -2 12 -9 19 -15 16 -13 -8 -28 15 -21 33 5 12 7
12 15 1 7 -9 8 -8 4 5 -3 10 -6 27 -6 38 0 10 -4 19 -10 19 -5 0 -10 -9 -10
-21 0 -11 -4 -17 -10 -14 -5 3 -10 16 -10 27 0 35 -11 13 -16 -33 -7 -61 -13
-65 -40 -28 -18 24 -21 36 -13 50 15 28 30 23 24 -8 -4 -23 -3 -22 7 5 14 42
8 47 -36 28 -31 -13 -36 -13 -36 0 0 7 -6 14 -14 14 -8 0 -18 9 -21 20 -3 11
-11 20 -16 20 -6 0 -8 -4 -4 -9 8 -15 -15 -25 -28 -12 -16 16 -30 14 -23 -4 3
-8 1 -15 -5 -15 -5 0 -14 10 -19 23 -5 12 -9 16 -9 8 -1 -7 -7 -11 -16 -7 -9
3 -15 -1 -15 -11 0 -12 -3 -13 -15 -3 -12 10 -16 9 -21 -4 -5 -12 -10 -14 -19
-6 -9 8 -15 8 -20 0 -9 -15 -25 -2 -25 21 0 10 -4 19 -9 19 -10 0 -21 48 -14
66 2 6 13 10 24 7 24 -7 45 37 23 50 -8 4 -14 14 -14 22 0 7 -10 15 -22 17
-18 2 -23 10 -23 33 0 18 5 29 12 28 7 -2 17 15 23 37 10 37 39 57 41 28 0 -7
5 -2 10 11 8 19 12 21 24 11 13 -11 15 -6 15 31 1 41 2 43 15 25 13 -17 15
-18 15 -3 0 9 5 17 11 17 5 0 7 4 4 10 -3 6 1 7 9 4 10 -4 18 1 22 11 6 16 9
15 25 -6 l18 -24 -1 48 c-2 36 -6 46 -16 42 -11 -4 -13 1 -8 25 4 22 1 32 -9
36 -8 4 -15 15 -15 26 0 14 -5 18 -15 14 -10 -3 -15 1 -15 14 0 10 -4 22 -10
25 -5 3 -10 -1 -10 -10 0 -9 -4 -13 -10 -10 -5 3 -10 15 -10 26 0 13 -7 19
-21 19 -12 0 -19 5 -16 13 2 6 -4 26 -14 43 -12 22 -14 35 -7 42 7 7 4 16 -9
29 -15 15 -18 34 -18 111 0 50 3 92 8 92 4 0 7 7 7 15 0 8 -6 15 -14 15 -17 0
-23 16 -21 55 2 19 7 30 17 29 10 -1 13 7 10 27 -2 16 -8 27 -12 24 -4 -2 -5
6 -3 19 4 20 0 25 -18 28 -15 2 -30 -5 -40 -16 -16 -20 -16 -20 -23 1 -4 12
-20 26 -36 32 -19 6 -28 15 -24 24 3 8 -2 20 -11 27 -20 17 -19 27 5 35 11 3
38 24 59 46 36 35 38 39 18 39 -16 0 -18 3 -9 9 10 6 2 10 -25 15 -81 14 -93
18 -93 31 0 7 -7 15 -15 19 -13 5 -15 -190 -15 -1719 l0 -1725 145 0 145 0 0
26 c0 18 6 28 21 31 12 4 18 11 15 20 -9 21 3 36 18 24 10 -8 18 -5 32 11 14
16 15 20 4 16 -11 -4 -16 1 -17 13 -1 10 4 19 12 19 8 0 16 12 18 28 l4 27 9
-25 c8 -21 10 -15 14 35 3 38 9 59 17 58 6 -1 14 16 18 38 5 29 10 38 18 30 7
-7 17 -3 33 14 30 32 44 32 45 -2 1 -30 3 -26 14 21 5 23 8 27 16 15 6 -11 9
-8 9 11 0 26 -12 52 -24 51 -20 -3 -26 1 -26 19 0 22 15 27 23 8 3 -7 6 5 6
27 0 26 -2 35 -8 26 -6 -10 -10 -10 -16 -1 -4 6 1 17 10 24 9 6 15 18 13 26
-2 9 3 14 14 12 9 -1 19 2 23 7 3 6 11 8 18 6 15 -6 37 39 37 76 0 30 26 35
47 9 10 -13 12 -13 18 3 4 9 13 17 21 17 8 0 14 5 14 11 0 5 -4 7 -10 4 -6 -3
-10 4 -10 16 0 21 1 21 19 5 10 -9 21 -32 24 -49 5 -34 -35 -113 -148 -297
-96 -155 -225 -388 -225 -405 0 -3 310 -5 688 -5 l688 0 44 62 c68 97 183 211
275 273 47 31 85 62 85 68 0 11 117 197 123 197 2 0 1 -38 -1 -84 -3 -55 -1
-86 7 -90 8 -5 11 16 11 71 0 107 25 190 96 318 63 114 145 213 237 283 49 38
55 47 67 99 7 32 34 117 61 189 27 72 49 141 49 155 1 78 73 299 99 299 30 0
42 16 59 81 l17 64 46 3 c56 4 70 -10 84 -82 9 -47 13 -52 65 -79 44 -23 64
-28 102 -24 l46 4 11 -43 c15 -60 13 -93 -8 -139 -32 -70 -165 -176 -244 -195
-19 -5 -24 -8 -12 -9 18 -1 20 -7 17 -57 -3 -35 4 -87 18 -142 40 -154 14
-256 -96 -379 -82 -91 -109 -109 -180 -118 l-54 -6 0 -105 0 -104 -41 -45
c-98 -107 -248 -173 -363 -161 -33 3 -76 9 -93 12 -30 6 -38 0 -98 -57 -85
-82 -125 -142 -125 -188 1 -72 -5 -71 304 -71 153 0 276 4 276 9 0 5 9 11 20
14 15 4 20 14 20 36 0 17 5 31 10 31 6 0 10 16 10 35 0 27 4 35 18 35 10 0 27
7 38 15 10 8 34 15 52 15 17 0 32 4 32 9 0 5 14 14 30 20 17 5 30 14 30 19 0
5 9 20 21 33 13 15 19 33 16 48 -3 14 0 35 6 48 7 16 7 26 -3 38 -11 13 -9 15
13 15 13 0 30 7 37 15 7 8 22 15 34 15 28 0 80 53 82 83 0 12 4 32 8 45 4 13
3 36 -2 50 -28 73 -26 81 22 103 25 10 47 28 51 38 3 11 12 22 20 25 8 3 15
18 15 34 0 15 5 33 11 39 7 7 8 30 1 73 -9 60 -8 62 15 71 34 13 93 75 93 99
0 11 5 20 11 20 6 0 10 15 8 33 -1 17 2 40 6 51 5 11 3 26 -3 37 -25 39 -14
72 36 110 l47 37 18 -24 c9 -12 17 -27 17 -32 0 -5 6 -14 13 -20 8 -7 12 -34
10 -81 -1 -39 2 -73 8 -76 5 -4 9 -17 9 -30 0 -13 8 -30 18 -37 11 -7 24 -23
30 -35 7 -12 25 -24 42 -28 16 -4 32 -11 35 -16 4 -5 19 -9 35 -9 32 0 42 -17
33 -60 -3 -17 0 -36 6 -44 6 -7 8 -26 5 -45 -4 -17 -2 -37 3 -43 6 -7 13 -25
17 -40 4 -18 15 -30 31 -34 14 -3 30 -15 36 -25 7 -13 21 -19 47 -19 58 -1 82
-28 85 -93 1 -30 7 -60 14 -68 6 -8 13 -25 15 -39 2 -14 14 -30 28 -37 13 -6
31 -21 40 -32 8 -11 26 -21 40 -23 16 -2 25 -9 24 -20 -1 -10 1 -17 5 -16 3 0
18 0 33 -1 25 -1 27 -4 22 -29 -4 -18 -1 -32 9 -40 8 -7 13 -22 10 -33 -4 -12
2 -29 15 -42 11 -12 22 -31 24 -42 2 -10 16 -26 32 -35 16 -8 39 -25 52 -38
13 -13 36 -22 53 -22 16 0 33 -4 36 -10 3 -5 19 -10 36 -10 24 0 29 -4 29 -23
0 -45 11 -47 249 -46 180 1 212 3 156 10 -81 10 -194 61 -239 108 -28 29 -29
34 -28 121 l2 90 -28 -5 c-24 -4 -23 -3 7 11 32 14 36 14 85 -10 27 -14 52
-23 54 -21 6 6 -75 45 -137 66 -30 11 -79 19 -110 19 -163 0 -374 114 -426
231 -33 71 5 126 51 75 26 -27 44 -34 44 -15 0 5 4 8 10 4 5 -3 7 -12 4 -19
-3 -8 0 -17 5 -21 21 -13 -1 -25 -45 -25 -26 0 -44 -5 -44 -11 0 -14 98 -5
113 10 15 15 -2 67 -36 104 -22 25 -75 55 -177 102 -79 36 -159 77 -177 91
-41 31 -103 154 -103 204 0 32 8 47 55 95 30 32 55 54 55 49 0 -6 -5 -15 -12
-22 -9 -9 -9 -12 0 -12 8 0 9 -7 2 -25 -7 -19 -6 -27 8 -35 16 -11 16 -11 -1
-6 -10 3 -25 -1 -33 -9 -9 -8 -24 -15 -35 -15 -10 0 -19 -4 -19 -10 0 -15 19
-12 79 11 83 31 111 56 141 123 46 101 45 117 -2 26 -30 -60 -52 -90 -75 -103
l-32 -18 9 32 c12 41 3 124 -19 169 l-17 35 -72 -4 c-72 -3 -73 -3 -105 31
-18 19 -50 70 -72 113 -35 67 -40 87 -40 144 0 36 3 77 7 91 7 24 10 25 91 25
98 0 117 11 149 83 l19 43 51 -46 c27 -25 56 -45 64 -45 12 0 34 -56 34 -89 0
-7 -10 -30 -22 -50 l-21 -36 25 23 c23 21 25 21 40 5 8 -10 27 -40 42 -67 24
-40 27 -56 22 -92 -5 -38 -2 -50 26 -88 21 -31 32 -60 36 -95 4 -50 5 -51 73
-96 37 -25 73 -54 79 -64 15 -28 12 -96 -5 -138 -17 -41 -22 -300 -5 -273 5 8
10 67 10 130 0 116 6 160 20 160 14 0 71 -84 66 -97 -3 -7 -1 -13 4 -13 6 0
19 -20 31 -45 18 -38 26 -45 57 -51 21 -3 54 -19 74 -35 20 -16 46 -29 57 -29
50 0 141 -55 161 -98 7 -15 23 -85 35 -157 20 -113 23 -123 24 -75 l2 55 22
-27 c15 -18 42 -31 85 -42 68 -17 185 -88 227 -137 29 -36 33 -90 13 -227 -10
-74 -8 -105 7 -90 3 3 8 55 12 116 6 106 7 111 25 101 11 -6 43 -17 71 -26 71
-21 114 -49 142 -93 15 -24 45 -49 81 -69 l58 -31 358 0 358 0 0 96 0 97 -40
51 c-77 97 -165 211 -200 259 -100 135 -381 481 -444 547 -40 41 -101 109
-136 150 -35 41 -116 128 -179 194 l-116 118 73 -7 c83 -7 81 -11 55 92 l-16
66 -129 -6 c-128 -6 -128 -5 -161 21 -44 36 -45 38 -52 103 -5 40 -14 66 -30
83 -26 29 -141 105 -199 133 -37 17 -76 73 -76 107 0 9 22 55 49 102 28 48 58
117 68 155 9 38 21 69 25 69 11 0 -1 -185 -14 -228 -5 -18 -8 -35 -5 -38 11
-11 62 231 56 268 -1 7 1 31 6 52 12 59 -27 344 -60 437 -8 22 -14 40 -14 42
0 1 -2 9 -5 17 -2 8 -16 53 -30 100 -15 50 -37 100 -54 120 -16 19 -51 67 -79
107 l-50 71 -31 -20 c-18 -11 -32 -28 -32 -38 0 -22 -10 -30 -70 -51 -25 -9
-45 -21 -45 -28 0 -7 -16 -25 -35 -41 -32 -26 -34 -31 -22 -50 28 -46 -23 -97
-89 -86 -30 5 -40 2 -48 -11 -9 -17 -13 -17 -51 5 -41 23 -42 23 -47 4 -5 -21
-30 -32 -75 -32 -25 0 -28 4 -28 34 0 23 8 42 26 60 15 14 29 26 33 26 86 7
110 4 122 -15 12 -20 12 -20 19 0 7 19 9 19 18 -5 l11 -25 0 26 c1 15 8 32 16
39 26 22 16 28 -22 14 -46 -16 -66 -17 -58 -4 4 6 9 8 13 6 4 -2 8 21 10 52 5
100 8 102 63 42 27 -29 49 -58 49 -63 0 -5 7 -4 16 4 8 7 13 21 10 31 -11 44
35 108 79 108 16 0 38 42 37 71 0 13 8 14 49 9 27 -4 48 -4 46 -1 -24 44 -89
188 -127 280 -26 64 -70 170 -97 236 -53 127 -96 250 -115 325 -6 25 -13 39
-15 32 -8 -23 53 -255 76 -287 7 -11 31 -82 51 -155 24 -87 63 -168 88 -181
17 -10 22 -19 17 -36 -3 -13 0 -33 6 -46 11 -19 10 -20 -3 -9 -13 10 -17 10
-21 -3 -4 -8 -13 -12 -22 -9 -9 4 -15 1 -15 -7 0 -16 -35 -50 -68 -68 -21 -11
-22 -10 -16 13 6 26 -8 36 -21 16 -3 -5 -17 -10 -30 -10 -30 0 -37 -12 -37
-61 1 -32 -4 -42 -21 -48 -12 -5 -31 -18 -41 -30 -11 -11 -23 -21 -29 -21 -5
0 -24 -7 -43 -16 -30 -14 -37 -15 -57 -2 -24 16 -74 9 -70 -9 1 -6 -9 -23 -22
-37 -18 -19 -34 -26 -62 -26 -21 0 -47 -7 -57 -15 -11 -8 -32 -15 -47 -15 -24
0 -26 4 -24 30 2 30 32 73 45 65 3 -2 20 3 36 12 50 26 84 34 84 17 0 -17 16
-19 26 -3 3 6 0 15 -7 20 -11 6 -11 11 -1 21 9 9 12 9 12 0 0 -7 7 -12 15 -12
8 0 15 9 15 19 0 27 31 34 66 16 37 -19 67 -20 42 -2 -22 17 -11 33 30 42 33
7 55 33 51 63 -4 31 23 72 48 72 12 0 23 5 23 10 0 6 11 10 23 10 13 0 32 9
42 20 10 11 15 20 11 20 -4 0 -2 9 4 20 7 13 21 20 41 20 l30 0 -16 30 c-11
22 -22 29 -40 28 -30 -3 -29 -2 -9 -22 8 -9 11 -16 5 -16 -10 0 -40 27 -42 38
-1 4 -2 21 -3 38 -1 17 -7 38 -13 45 -6 8 -13 28 -15 44 -2 17 -11 44 -20 60
-8 17 -19 44 -23 60 -4 17 -9 25 -11 19 -4 -10 13 -97 36 -179 6 -22 13 -51
16 -63 l5 -24 -30 22 c-17 11 -30 24 -30 28 3 21 -2 32 -12 26 -8 -4 -7 -9 2
-16 11 -8 11 -9 1 -6 -8 2 -13 7 -13 11 1 4 -8 17 -19 29 -11 12 -20 27 -19
32 0 6 3 5 6 -1 9 -23 20 -14 21 18 0 20 -3 29 -12 26 -8 -3 -12 6 -13 29 -1
27 3 34 18 34 21 0 16 27 -9 45 -19 15 -5 67 16 63 9 -2 19 -14 23 -28 7 -25
13 -10 9 24 -1 10 2 16 7 13 5 -3 14 -3 20 1 8 5 7 26 -3 72 -7 36 -17 94 -20
129 l-7 64 -23 -44 c-16 -31 -23 -38 -24 -24 -1 12 -16 -9 -36 -50 -20 -38
-58 -105 -85 -147 -27 -42 -49 -79 -49 -82 0 -2 25 -30 55 -61 53 -54 72 -94
39 -81 -8 3 -13 2 -10 -2 2 -4 -1 -18 -8 -30 -12 -23 -13 -23 -29 20 -9 23
-19 55 -23 70 -7 30 -76 98 -99 98 -8 0 -15 5 -15 10 0 6 4 10 9 10 5 0 11 8
14 18 3 9 23 60 44 112 38 91 55 154 68 250 10 73 37 205 43 210 2 3 2 -68 -1
-158 -4 -100 -2 -160 4 -157 5 4 9 11 9 17 0 5 9 23 21 39 23 32 44 30 33 -4
-14 -46 7 -8 31 57 18 48 27 94 30 159 3 57 1 79 -3 57 -5 -19 -17 -53 -28
-75 -23 -49 -32 -26 -15 40 20 78 10 173 -14 135 -9 -15 -25 -2 -41 35 -8 21
-14 78 -15 156 -2 157 -10 203 -54 296 -19 41 -35 82 -35 91 0 10 -5 24 -11
32 -8 11 -9 9 -4 -10 7 -24 7 -24 -9 -5 -8 11 -16 28 -16 38 0 9 -5 17 -11 17
-6 0 -8 7 -5 16 3 8 2 13 -2 10 -4 -2 -28 24 -53 57 -47 62 -130 120 -146 103
-4 -5 -3 -11 4 -13 19 -7 109 -125 136 -180 44 -85 87 -229 94 -310 5 -59 11
-81 25 -91 14 -11 18 -26 18 -79 0 -86 8 -77 14 16 2 40 7 75 9 78 12 11 27
-10 22 -28 -4 -11 -2 -19 4 -19 6 0 11 -14 11 -32 0 -53 -23 -198 -32 -198 -4
0 -8 5 -8 11 0 5 -4 8 -9 5 -5 -4 -11 0 -14 6 -3 8 -9 3 -15 -12 -10 -24 -11
-23 -11 12 -1 54 -17 54 -31 0 -26 -99 -108 -252 -166 -309 -8 -9 -24 -35 -35
-59 -24 -49 -104 -129 -169 -166 -56 -33 -197 -81 -216 -74 -8 3 -14 -1 -14
-9 0 -18 20 -31 29 -18 3 6 21 12 39 15 31 4 32 4 32 -33 0 -32 -3 -38 -17
-34 -10 3 -5 -1 11 -8 26 -13 31 -12 48 5 12 12 26 17 39 13 13 -4 19 -2 19 9
0 34 38 54 100 51 44 -2 63 1 73 14 19 21 113 208 149 296 17 42 26 56 22 36
-10 -57 -123 -313 -143 -325 -14 -9 -14 -26 0 -26 5 0 7 5 4 10 -3 6 -2 10 3
10 5 0 22 19 37 41 21 32 29 38 36 28 6 -10 9 -10 9 -1 0 6 6 12 13 12 7 0 18
12 25 28 10 25 11 25 6 2 -3 -14 -12 -40 -21 -59 -22 -48 -33 -92 -23 -86 33
21 135 253 125 285 -3 10 -1 28 4 41 6 13 10 17 11 9 0 -8 9 1 20 20 11 19 19
33 20 30 2 -26 -78 -267 -106 -320 -43 -83 -142 -207 -226 -286 -73 -67 -165
-133 -196 -139 -26 -5 -106 -51 -122 -70 -7 -8 -20 -15 -29 -15 -9 0 -22 -5
-28 -11 -8 -8 -26 -6 -67 7 -44 14 -56 22 -56 38 0 11 -15 50 -32 86 -31 61
-33 70 -31 165 1 55 -2 92 -5 83 -5 -13 -11 -15 -22 -8 -8 5 -31 10 -51 10
-24 0 -45 8 -63 25 -44 40 -35 50 45 50 62 0 73 -3 89 -23 l19 -23 31 22 c28
22 66 68 58 73 -2 2 -37 20 -78 41 -150 76 -215 140 -280 277 l-40 83 15 84
c8 47 13 86 11 89 -6 6 -17 -33 -37 -137 -18 -91 -18 -93 -14 -31 2 36 7 83
10 105 6 36 5 38 -8 23 -8 -10 -20 -18 -26 -18 -9 0 -10 -16 -5 -60 8 -72 -7
-79 -54 -26 -61 70 -87 198 -43 210 84 23 98 16 103 -54 l3 -45 82 85 c82 84
103 97 61 37 -28 -41 -13 -30 73 49 19 18 72 71 118 118 46 47 86 86 89 86 6
0 -15 -26 -90 -108 -32 -34 -58 -70 -58 -78 0 -30 -31 -83 -45 -77 -15 5 -108
-42 -127 -64 -8 -11 -7 -12 6 -7 25 10 19 -12 -10 -31 -14 -9 -23 -19 -20 -22
3 -3 13 0 22 8 13 11 18 11 21 2 3 -7 13 -23 23 -35 l19 -23 -2 44 c-3 62 19
64 26 2 3 -27 16 -72 29 -100 22 -47 25 -51 58 -49 28 1 30 2 9 5 -19 3 -28
11 -32 29 -5 26 1 28 51 18 21 -4 29 -11 25 -20 -3 -8 1 -14 10 -14 21 0 60
85 61 132 1 41 5 45 24 26 9 -9 12 -8 12 6 0 14 5 17 21 13 20 -5 20 -4 5 12
-34 38 -111 11 -198 -67 -21 -19 -41 -32 -45 -29 -7 8 39 157 73 233 15 32 29
54 31 47 2 -7 -5 -33 -17 -59 -24 -55 -14 -78 18 -43 12 12 19 26 16 30 -3 5
1 6 9 3 8 -3 31 14 56 41 23 25 46 43 51 40 5 -3 24 15 42 41 18 26 40 55 50
65 9 10 14 20 11 23 -12 12 31 46 66 52 65 12 185 115 225 193 22 42 30 116
18 168 -5 24 -6 40 -1 38 12 -8 29 -74 29 -112 0 -18 9 -56 20 -85 11 -29 20
-73 20 -98 0 -50 -13 -80 -25 -60 -5 8 -11 6 -20 -6 -12 -17 -13 -16 -19 4 -4
12 -12 20 -17 17 -5 -3 -7 0 -5 7 3 7 7 38 10 68 6 55 6 55 -11 29 -59 -85
-152 -169 -187 -169 -16 0 -106 -128 -106 -151 0 -9 8 -5 20 11 23 30 26 16 5
-33 -8 -19 -24 -38 -37 -42 -19 -6 -20 -8 -5 -12 9 -2 17 -8 17 -12 0 -9 -51
-150 -73 -203 -35 -82 -4 -30 70 117 42 85 78 153 80 151 2 -1 -11 -39 -27
-85 -33 -90 -34 -95 -21 -87 5 4 7 -4 4 -16 -7 -27 -2 -23 52 47 21 28 42 54
46 59 4 5 3 -9 -2 -30 -11 -51 -11 -67 1 -59 6 3 10 1 10 -5 0 -6 -44 -56 -97
-110 -54 -55 -95 -100 -91 -100 3 0 47 34 98 76 l91 75 -31 -60 c-16 -33 -30
-63 -30 -66 0 -14 31 -2 65 25 42 34 49 32 51 -12 2 -40 11 -47 67 -51 52 -5
63 -10 52 -26 -9 -15 -42 -14 -68 4 -21 13 -23 13 -24 -5 -1 -11 10 -28 25
-38 48 -33 63 -34 88 -7 19 20 20 25 7 25 -14 0 -12 4 6 21 30 28 51 79 51
124 0 33 2 35 21 25 27 -15 35 -38 21 -61 -18 -28 -14 -34 8 -14 19 18 20 17
20 -2 0 -11 -6 -41 -14 -66 -8 -26 -10 -45 -5 -42 21 14 39 119 46 267 3 88
10 155 14 151 9 -10 18 -73 19 -143 1 -49 2 -52 12 -30 21 46 14 292 -11 410
-13 58 -29 141 -36 185 -7 44 -24 103 -37 132 -25 53 -88 133 -88 112 0 -7
-11 -2 -26 12 -21 20 -23 25 -11 34 21 15 1 40 -47 60 -27 12 -42 13 -56 5
-19 -10 -19 -13 -5 -40 9 -17 11 -30 5 -30 -5 0 -10 -6 -10 -14 0 -8 -9 -17
-19 -21 -11 -3 -25 -20 -32 -38 l-12 -32 -10 58 c-9 54 -11 59 -33 54 -29 -5
-47 13 -34 33 15 24 11 40 -9 40 -10 0 -24 7 -31 15 -14 16 -6 19 56 15 39 -2
54 18 28 38 -18 13 -17 14 9 8 38 -9 34 2 -8 20 -46 19 -65 18 -40 -3 19 -15
19 -15 -10 -8 -16 4 -52 9 -78 11 -35 3 -54 10 -67 26 l-18 23 51 3 c47 3 159
-13 277 -39 93 -21 203 -83 285 -160 92 -88 147 -163 221 -301 30 -57 52 -92
48 -78 -4 14 -25 59 -47 100 -128 238 -274 377 -452 434 -103 32 -242 56 -333
56 -62 0 -73 3 -86 22 -9 12 -16 19 -16 15 0 -4 25 -40 55 -80 31 -39 63 -89
73 -109 9 -21 23 -38 30 -38 14 0 51 -38 52 -53 0 -12 -67 -38 -83 -32 -7 3
-22 -3 -32 -15 -10 -11 -22 -20 -26 -20 -5 0 -25 -11 -45 -25 -20 -14 -45 -25
-55 -25 -9 0 -30 -11 -46 -24 -16 -13 -48 -29 -71 -35 -23 -7 -57 -20 -75 -30
-34 -20 -108 -23 -114 -6 -4 14 101 83 147 95 20 5 56 28 79 50 29 27 51 40
70 40 16 0 48 7 71 15 23 8 47 12 54 8 7 -3 6 -1 -1 7 -10 11 -10 17 1 29 13
14 7 24 -45 81 -61 67 -74 97 -73 178 1 23 -2 41 -5 41 -3 -1 -17 -4 -31 -6z
m-222 -158 c-2 -6 -9 -9 -15 -9 -19 2 -16 -4 8 -17 15 -8 19 -8 15 0 -5 8 20
11 83 11 62 0 91 -4 94 -12 3 -8 6 -6 6 5 1 11 9 17 26 17 14 0 25 -4 25 -10
0 -5 5 -10 12 -10 13 0 48 -29 48 -41 0 -5 -7 -6 -15 -3 -11 5 -13 2 -9 -10 8
-22 -2 -20 -45 7 -64 40 -95 46 -158 32 -75 -16 -95 -25 -90 -39 4 -12 -72
-73 -86 -68 -5 1 -6 -2 -3 -6 3 -5 -4 -18 -16 -28 -20 -19 -21 -19 -13 6 12
43 30 80 37 80 5 0 8 8 8 18 0 20 68 94 82 90 5 -2 8 -8 6 -13z m501 -124 c0
-13 -2 -13 -6 -1 -4 8 -16 23 -27 33 -21 18 -20 18 7 1 15 -9 27 -24 26 -33z
m218 -81 c7 -14 10 -27 7 -30 -7 -6 -44 38 -44 52 0 17 25 2 37 -22z m-941
-12 c5 -7 3 -8 -6 -3 -10 6 -12 4 -7 -8 7 -20 -62 -106 -81 -99 -24 8 -11 46
28 84 43 40 55 45 66 26z m264 -23 c10 -12 5 -21 -27 -51 -54 -52 -87 -60
-113 -27 -25 31 -15 47 45 74 50 22 79 23 95 4z m-379 -210 c-12 -23 -45 -65
-72 -93 -27 -28 -49 -53 -49 -56 0 -20 36 4 107 73 l83 80 20 -29 c13 -18 17
-35 13 -47 -6 -16 -8 -15 -15 7 -6 21 -7 20 -2 -5 2 -16 6 -36 7 -44 1 -8 -4
-16 -11 -18 -7 -3 -10 1 -6 11 3 9 1 16 -5 16 -7 0 -11 -20 -11 -51 0 -31 -4
-48 -10 -44 -5 3 -10 2 -10 -3 0 -14 -50 -33 -71 -27 -11 4 -19 15 -19 26 0
11 -7 22 -16 26 -16 6 -63 -14 -77 -32 -12 -16 -44 30 -52 74 -11 66 44 145
149 215 l39 26 15 -31 c15 -29 14 -34 -7 -74z m1030 52 c-2 -23 -8 -51 -14
-62 -10 -19 -10 -19 -17 0 -4 11 -3 33 1 49 5 16 7 32 4 34 -5 6 19 31 25 26
2 -3 3 -24 1 -47z m-237 28 c-4 -8 -11 -15 -16 -15 -6 0 -5 6 2 15 7 8 14 15
16 15 2 0 1 -7 -2 -15z m444 -90 c-1 -30 -1 -30 -5 -2 -2 15 -8 27 -13 27 -4
0 -6 10 -2 22 5 21 6 21 13 2 4 -10 7 -32 7 -49z m-778 21 c-16 -16 -132 -20
-153 -4 -15 11 -4 13 73 14 64 1 88 -2 80 -10z m77 -29 c-8 -12 -53 -73 -101
-136 -47 -63 -84 -116 -82 -119 8 -7 56 27 63 44 3 8 9 14 15 14 5 0 25 12 44
26 19 15 34 23 34 19 0 -5 -17 -38 -37 -74 l-36 -66 94 85 c52 47 110 97 129
112 19 14 45 36 58 48 29 27 36 21 28 -23 -6 -34 -26 -56 -131 -149 -108 -95
-154 -143 -144 -148 5 -3 -12 -26 -37 -51 -39 -37 -44 -39 -28 -14 10 17 25
39 33 50 15 19 15 19 -4 4 -11 -9 -31 -25 -44 -35 -38 -31 -45 -37 -90 -79
l-43 -40 46 64 c26 35 45 66 43 68 -2 2 -30 -9 -63 -23 -68 -30 -217 -84 -233
-84 -24 0 -9 20 27 36 105 47 126 59 172 101 28 25 48 48 45 51 -3 3 -11 0
-17 -6 -7 -7 -16 -12 -20 -12 -5 0 20 33 54 73 35 40 101 121 147 180 79 100
113 137 78 84z m703 -177 c-9 -71 -9 -116 -1 -173 18 -127 18 -129 -26 -122
l-38 5 35 -13 c34 -13 35 -15 36 -73 1 -32 0 -49 -3 -36 -2 12 -10 23 -16 23
-7 1 -23 3 -37 4 -14 1 -37 5 -52 8 -24 5 -36 -2 -79 -46 -49 -51 -50 -51 -25
-12 15 22 33 54 40 70 8 17 23 41 34 55 50 63 122 280 122 367 0 27 4 59 8 73
7 25 7 25 11 -5 2 -16 -2 -73 -9 -125z m-1074 114 c16 -23 16 -28 1 -60 -13
-27 -14 -39 -5 -59 10 -23 8 -29 -21 -59 -18 -19 -31 -38 -28 -43 3 -5 -5 -31
-19 -58 -13 -28 -24 -55 -24 -62 0 -6 -14 -26 -32 -43 -24 -25 -28 -34 -18
-40 11 -7 11 -16 1 -49 -13 -46 -20 -49 -45 -22 -16 17 -16 25 -2 98 9 50 30
109 55 159 23 43 41 85 41 91 0 26 33 93 42 87 6 -4 8 1 4 14 -7 21 11 72 25
72 5 0 16 -12 25 -26z m1054 -6 c0 -13 -6 -61 -14 -108 -28 -170 -114 -338
-227 -447 -98 -94 -134 -115 -87 -51 50 67 100 160 128 235 15 42 32 79 38 81
12 4 7 -17 -22 -97 -9 -24 -13 -47 -10 -50 4 -3 9 0 11 7 3 6 10 9 16 5 6 -4
8 0 4 9 -3 10 3 19 16 26 25 11 61 99 72 172 4 25 15 68 25 95 10 28 21 72 25
98 7 48 25 65 25 25z m-1010 -122 c0 -2 -7 -7 -16 -10 -8 -3 -12 -2 -9 4 6 10
25 14 25 6z m-372 -151 c-2 -11 -7 -20 -12 -20 -9 0 -96 133 -96 147 0 5 25
-18 55 -49 36 -38 55 -65 53 -78z m1041 56 c-6 -18 -13 -30 -15 -28 -2 2 1 18
7 36 6 18 13 30 15 28 2 -2 -1 -18 -7 -36z m538 7 c-3 -8 -6 -5 -6 6 -1 11 2
17 5 13 3 -3 4 -12 1 -19z m-1127 -178 c-6 -11 -13 -20 -16 -20 -2 0 0 9 6 20
6 11 13 20 16 20 2 0 0 -9 -6 -20z m-50 -69 c0 -6 -4 -12 -8 -15 -5 -3 -9 1
-9 9 0 8 4 15 9 15 4 0 8 -4 8 -9z m-163 -113 c-3 -8 -6 -5 -6 6 -1 11 2 17 5
13 3 -3 4 -12 1 -19z m1173 1 c0 -11 -4 -17 -10 -14 -5 3 -10 13 -10 21 0 8 5
14 10 14 6 0 10 -9 10 -21z m-1199 -110 c5 -63 17 -159 25 -214 29 -187 28
-176 11 -169 -14 5 -29 34 -41 79 -6 23 3 -97 10 -135 4 -23 4 -23 -5 -4 -5
12 -17 67 -26 124 -24 142 -16 464 11 437 2 -2 9 -55 15 -118z m36 -111 c-2
-18 -4 -4 -4 32 0 36 2 50 4 33 2 -18 2 -48 0 -65z m102 25 l-2 -68 -7 60 c-6
56 -5 75 6 75 2 0 3 -30 3 -67z m-86 -143 c4 -56 3 -65 -3 -35 -9 40 -13 122
-6 114 2 -2 6 -38 9 -79z m94 38 c-3 -7 -5 -2 -5 12 0 14 2 19 5 13 2 -7 2
-19 0 -25z m-290 -10 c-3 -8 -6 -5 -6 6 -1 11 2 17 5 13 3 -3 4 -12 1 -19z
m100 -145 c-3 -10 -5 -2 -5 17 0 19 2 27 5 18 2 -10 2 -26 0 -35z m1604 20
c12 -15 12 -16 -3 -10 -13 4 -18 1 -18 -10 0 -9 -3 -14 -6 -10 -5 5 4 47 10
47 2 0 10 -8 17 -17z m-1279 -17 c5 -23 4 -23 -27 -10 -33 13 -45 10 -45 -12
0 -8 17 -12 50 -12 49 -1 98 -18 85 -30 -6 -7 -10 -8 -36 -11 -7 -1 -5 -10 5
-26 22 -33 20 -45 -6 -45 -48 0 -118 69 -118 117 0 30 26 53 60 53 21 0 29 -5
32 -24z m307 -69 c1 -9 -48 -57 -58 -57 -3 0 -18 10 -32 23 -19 15 -28 35 -32
64 l-5 42 63 -32 c35 -18 64 -36 64 -40z m491 48 c19 -23 9 -25 -25 -4 -26 17
-27 19 -9 19 12 0 27 -7 34 -15z m-1280 -40 c-15 -39 -23 -25 -8 16 6 18 13
29 15 23 2 -6 -1 -24 -7 -39z m1799 -8 c1 -5 -3 -5 -9 -2 -5 3 -10 16 -9 28 0
21 1 21 9 2 5 -11 9 -24 9 -28z m-1642 -39 c-3 -7 -5 -2 -5 12 0 14 2 19 5 13
2 -7 2 -19 0 -25z m-10 -90 c-3 -8 -6 -5 -6 6 -1 11 2 17 5 13 3 -3 4 -12 1
-19z m1291 -6 c2 -7 -2 -10 -12 -6 -9 3 -16 11 -16 16 0 13 23 5 28 -10z
m-1685 -12 c3 -11 1 -18 -4 -14 -5 3 -9 -2 -9 -10 0 -9 6 -13 14 -10 13 5 13
1 3 -25 -12 -34 -32 -43 -22 -11 4 12 2 20 -5 20 -8 0 -11 -11 -8 -30 3 -16 1
-30 -4 -30 -5 0 -6 -5 -3 -10 4 -6 10 -8 15 -5 10 6 22 -23 14 -36 -3 -5 -18
-9 -34 -9 -22 0 -28 -4 -24 -15 7 -18 4 -18 -31 -5 -29 11 -31 3 30 105 14 22
32 55 42 73 9 17 18 32 19 32 1 0 4 -9 7 -20z m372 -114 c-17 -58 -29 -74 -41
-55 -5 8 -3 9 6 4 8 -5 11 -3 8 6 -3 8 3 38 14 68 10 30 19 64 20 75 0 12 3 7
5 -11 2 -17 -3 -56 -12 -87z m-214 87 c-5 -10 -17 -27 -26 -38 -16 -19 -17
-19 -3 5 26 46 29 50 34 50 3 0 0 -8 -5 -17z m1457 -38 c-3 -3 -9 2 -12 12 -6
14 -5 15 5 6 7 -7 10 -15 7 -18z m-1597 -22 c-12 -20 -14 -14 -5 12 4 9 9 14
11 11 3 -2 0 -13 -6 -23z m83 -25 c-45 -55 -70 -80 -89 -90 -11 -6 7 17 40 51
60 61 84 80 49 39z m1506 -42 c0 -17 -17 -31 -50 -41 -25 -7 -25 -7 4 24 32
34 46 39 46 17z m-1680 -56 c8 -5 11 -10 5 -10 -5 0 -17 5 -25 10 -8 5 -10 10
-5 10 6 0 17 -5 25 -10z m2059 -12 c12 -15 11 -18 -3 -18 -10 0 -16 8 -16 22
0 12 1 19 3 17 1 -2 9 -12 16 -21z m-2019 -13 c-15 -18 -80 -50 -123 -60 -15
-4 -44 -4 -65 0 l-37 8 60 13 c33 7 66 13 73 13 7 1 10 6 6 13 -4 7 -3 8 4 4
6 -4 28 2 49 13 42 21 53 20 33 -4z m250 -9 c0 -2 -8 -10 -17 -17 -16 -13 -17
-12 -4 4 13 16 21 21 21 13z m-51 -52 c-7 -9 -40 -35 -73 -58 -119 -84 -117
-72 2 16 85 62 91 65 71 42z m1441 -16 c-16 -66 -20 -71 -40 -45 -26 33 -19
61 16 68 16 4 30 7 30 8 1 0 -2 -14 -6 -31z m-800 -23 c0 -5 -5 -3 -10 5 -5 8
-10 20 -10 25 0 6 5 3 10 -5 5 -8 10 -19 10 -25z m-265 -121 c60 -82 128 -142
111 -99 -10 26 13 16 28 -13 8 -15 23 -36 35 -46 12 -11 21 -24 21 -30 0 -6 8
-16 19 -23 18 -11 35 -63 21 -63 -3 0 -27 14 -52 30 -37 25 -46 36 -43 56 1
13 0 23 -2 21 -2 -3 -31 23 -65 57 -33 33 -64 60 -69 59 -5 -2 -9 3 -9 11 0 8
-4 16 -8 18 -10 4 -72 144 -72 161 1 6 13 -13 29 -44 15 -32 40 -74 56 -95z
m547 106 c47 -18 52 -18 63 -3 17 23 120 11 185 -22 27 -14 60 -25 72 -25 41
-1 105 -37 124 -70 11 -18 36 -41 57 -51 50 -26 80 -56 70 -72 -13 -21 -96
-93 -116 -100 -13 -5 -62 10 -95 29 -2 1 4 15 14 31 17 27 17 27 -18 -5 -31
-29 -39 -32 -57 -23 -18 10 -21 9 -21 -9 0 -19 5 -21 58 -19 56 2 121 -16 144
-39 17 -17 -28 -62 -62 -62 -32 0 -43 9 -30 25 7 8 -9 11 -62 11 -67 -1 -72 0
-94 29 -20 27 -28 30 -76 29 -43 -1 -56 3 -70 20 -10 11 -18 15 -18 9 0 -27
-79 -12 -81 16 0 9 -5 4 -11 -11 -9 -25 -14 -28 -59 -28 -41 0 -54 5 -74 25
-17 20 -29 24 -48 20 -20 -5 -30 1 -55 31 -23 28 -28 40 -19 46 20 13 65 9 81
-7 8 -8 28 -15 45 -15 20 0 31 -6 33 -17 3 -16 6 -15 16 5 11 20 10 22 -8 22
-12 0 -24 9 -30 23 l-9 22 0 -22 c-1 -27 -4 -28 -37 -7 -18 12 -37 15 -69 11
l-44 -6 -30 63 c-42 90 -42 95 2 119 35 18 45 19 89 8 67 -15 78 -14 78 8 0
11 6 22 13 24 28 12 100 6 149 -13z m922 -36 c7 -19 2 -18 -19 6 -16 17 -16
20 -3 15 9 -4 19 -13 22 -21z m-14 -30 c0 -8 -4 -14 -10 -14 -5 0 -10 9 -10
21 0 11 5 17 10 14 6 -3 10 -13 10 -21z m-2498 -36 c-7 -7 -12 -8 -12 -2 0 14
12 26 19 19 2 -3 -1 -11 -7 -17z m374 -32 c-69 -40 -162 -72 -236 -82 l-52 -7
17 27 c19 29 10 36 -12 9 -12 -16 -12 -15 -2 8 9 21 18 26 50 27 25 1 38 -2
34 -8 -3 -6 3 -10 15 -10 12 0 18 -4 15 -10 -3 -5 -4 -10 0 -10 13 0 171 64
190 76 11 8 24 14 30 14 5 0 -16 -16 -49 -34z m2026 -35 c9 -10 7 -16 -8 -25
-23 -14 -57 -14 -66 -1 -9 12 0 55 15 74 9 11 15 9 29 -10 10 -13 23 -30 30
-38z m-2442 -6 c14 -18 13 -19 -1 -7 -14 10 -18 10 -23 -4 -4 -9 -9 -14 -12
-11 -3 3 0 14 7 26 7 11 14 19 14 18 0 -1 7 -11 15 -22z m33 8 c-3 -7 -6 -13
-8 -13 -2 0 -5 6 -8 13 -3 8 1 14 8 14 7 0 11 -6 8 -14z m674 -16 c21 -18 52
-39 70 -46 22 -9 30 -17 26 -29 -4 -10 -2 -13 6 -8 6 4 25 9 41 11 24 3 30 0
30 -15 0 -26 10 -50 22 -50 6 0 7 7 4 15 -3 8 -9 22 -12 30 -4 10 0 15 11 15
11 0 15 -5 11 -15 -7 -19 -8 -19 39 5 55 28 129 27 149 -2 14 -19 16 -20 22
-5 5 15 10 14 33 -9 14 -15 36 -33 49 -41 12 -9 22 -19 22 -24 0 -14 -52 -10
-84 6 -23 12 -36 13 -69 4 -31 -8 -50 -8 -78 1 -44 15 -64 10 -64 -16 0 -13
-8 -20 -28 -22 -21 -3 -36 5 -62 31 -19 19 -40 35 -47 34 -33 -1 -48 4 -48 16
0 10 -14 14 -46 13 -36 -1 -50 4 -64 22 -10 12 -25 22 -33 22 -57 0 -62 37 -9
68 50 29 66 28 109 -11z m88 3 c-9 -16 -18 -30 -21 -30 -2 0 2 14 11 30 9 17
18 30 21 30 2 0 -2 -13 -11 -30z m425 -128 c0 -10 -90 81 -112 113 -11 17 10
-1 46 -39 36 -37 66 -71 66 -74z m108 69 c46 -51 47 -61 9 -61 -38 0 -73 51
-50 73 11 11 22 8 41 -12z m-1218 -25 c0 -2 -7 -7 -16 -10 -8 -3 -12 -2 -9 4
6 10 25 14 25 6z m-150 -30 c0 -2 -8 -10 -17 -17 -16 -13 -17 -12 -4 4 13 16
21 21 21 13z m435 -7 c22 -7 63 -15 90 -19 l50 -8 -45 0 c-25 0 -70 7 -100 18
-61 20 -58 26 5 9z m216 -234 c5 -23 7 -25 8 -7 1 17 7 22 28 22 25 0 25 -1
10 -18 -10 -10 -17 -23 -17 -28 1 -5 11 4 24 20 45 54 110 45 179 -26 15 -15
35 -28 45 -29 9 0 49 -1 87 -3 39 -1 82 -7 97 -14 28 -11 28 -12 12 -45 l-16
-34 -79 1 c-48 1 -83 6 -91 14 -6 6 -29 12 -49 12 -28 0 -41 6 -53 25 -12 19
-23 24 -37 20 -12 -4 -36 3 -64 20 -40 23 -49 25 -85 15 -54 -15 -120 2 -120
31 0 24 56 60 90 57 19 -2 26 -11 31 -33z m1778 -85 c13 0 21 -53 9 -67 -7 -9
-49 -12 -146 -10 -116 2 -136 4 -133 17 2 8 4 30 4 48 1 33 1 34 42 28 22 -3
56 -8 75 -11 24 -5 49 0 80 14 44 20 45 20 52 1 4 -11 11 -20 17 -20z m-1907
-97 c-19 -231 3 -397 68 -522 22 -43 53 -89 67 -102 l27 -24 -17 25 c-74 111
-115 225 -122 337 l-5 78 16 -50 c53 -176 84 -238 161 -325 44 -49 43 -60 -5
-60 -9 0 -56 -16 -104 -36 -81 -33 -88 -34 -115 -21 -15 8 -38 26 -51 40 l-23
24 22 6 c16 4 20 11 16 26 -3 12 -1 19 4 15 5 -3 9 3 9 13 0 15 2 16 10 3 18
-28 21 12 6 81 -19 91 -20 263 -1 394 19 137 36 227 42 221 3 -2 0 -58 -5
-123z m811 107 c12 -18 15 -18 20 -5 10 24 34 18 40 -11 6 -33 -33 -55 -64
-36 -20 13 -67 16 -94 6 -9 -4 -21 -17 -25 -30 -8 -20 -16 -23 -50 -21 -45 2
-46 5 -24 50 20 39 34 49 50 36 16 -13 61 -1 68 17 8 22 63 17 79 -6z m637
-30 c-44 -56 -58 -61 -18 -7 18 25 37 46 41 46 5 1 -6 -17 -23 -39z m1066
-118 c37 -102 44 -137 15 -82 -21 40 -81 213 -81 232 1 17 25 -37 66 -150z
m-890 135 c0 -1 -1 -21 -4 -44 -3 -37 -7 -43 -27 -43 -13 0 -27 -5 -31 -11 -4
-7 -24 -9 -50 -6 -24 2 -44 1 -44 -4 0 -5 -16 -9 -35 -9 -19 0 -35 3 -35 8 0
4 16 25 35 47 27 32 34 36 35 21 0 -19 1 -19 13 -2 19 26 88 56 117 50 14 -3
25 -6 26 -7z m64 -142 c0 -8 -2 -15 -4 -15 -2 0 -6 7 -10 15 -3 8 -1 15 4 15
6 0 10 -7 10 -15z m879 -238 c5 -7 19 -40 30 -74 16 -49 21 -87 21 -175 0
-123 -9 -174 -35 -215 l-17 -26 -44 81 c-43 79 -44 82 -33 129 20 89 11 245
-27 427 -23 110 -17 108 40 -17 30 -65 59 -124 65 -130z m-781 87 l3 -49 -25
24 c-20 19 -23 27 -14 38 8 11 3 24 -23 61 l-33 47 44 -36 c41 -33 45 -41 48
-85z m406 7 c9 -11 8 -13 -4 -9 -8 2 -16 18 -17 34 -1 18 0 22 4 9 3 -11 10
-26 17 -34z m545 -56 c1 16 3 17 10 6 5 -8 8 -27 6 -43 -2 -15 1 -30 6 -34 5
-3 7 -10 3 -15 -3 -5 -10 -6 -16 -3 -7 4 -8 -2 -3 -17 5 -16 4 -21 -3 -14 -5
6 -12 39 -15 75 -4 40 -2 57 3 45 l9 -20 0 20z m-4474 -375 c3 -5 2 -10 -4
-10 -5 0 -13 5 -16 10 -3 6 -2 10 4 10 5 0 13 -4 16 -10z m1649 -49 c16 -16
40 -34 55 -41 21 -8 29 -22 39 -62 6 -28 10 -53 8 -56 -11 -10 -97 75 -120
118 -41 74 -32 93 18 41z m2546 -108 c0 -7 -39 17 -46 28 -3 6 5 3 20 -6 14
-10 26 -19 26 -22z m-4196 -63 c-6 -5 -24 21 -24 34 0 6 6 1 14 -10 8 -10 12
-21 10 -24z m972 -227 c-11 -11 -19 6 -11 24 8 17 8 17 12 0 3 -10 2 -21 -1
-24z m-656 -55 c0 -6 -9 -3 -20 7 -11 10 -20 24 -20 32 0 9 6 7 20 -7 11 -11
20 -25 20 -32z m21 -41 c-10 -9 -11 -8 -5 6 3 10 9 15 12 12 3 -3 0 -11 -7
-18z m4644 -158 c11 -17 2 -18 -19 -3 -17 12 -17 14 -4 14 9 0 20 -5 23 -11z
m-4155 -360 c0 -5 -4 -9 -10 -9 -5 0 -10 7 -10 16 0 8 5 12 10 9 6 -3 10 -10
10 -16z m-80 -75 c0 -8 -4 -14 -9 -14 -11 0 -22 26 -14 34 9 9 23 -3 23 -20z
m-270 -465 c0 -18 -2 -20 -15 -9 -13 11 -13 15 -3 21 18 12 18 12 18 -12z
m3880 -370 c11 -7 5 -8 -22 -3 -33 5 -37 3 -41 -18 -4 -21 -4 -20 -6 5 -1 23
3 27 27 27 15 0 34 -5 42 -11z m-30 -19 c0 -5 -5 -10 -11 -10 -5 0 -7 5 -4 10
3 6 8 10 11 10 2 0 4 -4 4 -10z m17 -132 c-3 -7 -5 -2 -5 12 0 14 2 19 5 13 2
-7 2 -19 0 -25z m28 12 c3 -5 1 -10 -4 -10 -6 0 -11 5 -11 10 0 6 2 10 4 10 3
0 8 -4 11 -10z m-4335 -200 c0 -5 -2 -10 -4 -10 -3 0 -8 5 -11 10 -3 6 -1 10
4 10 6 0 11 -4 11 -10z"/>
<path d="M2471 4344 c0 -11 3 -14 6 -6 3 7 2 16 -1 19 -3 4 -6 -2 -5 -13z"/>
<path d="M1986 3934 c-4 -9 -4 -19 -1 -22 2 -3 7 3 11 12 4 9 4 19 1 22 -2 3
-7 -3 -11 -12z"/>
<path d="M3111 3441 c-7 -5 -12 -13 -10 -18 2 -5 12 -1 22 9 18 19 12 24 -12
9z"/>
<path d="M3180 3415 c0 -8 4 -15 10 -15 5 0 7 7 4 15 -4 8 -8 15 -10 15 -2 0
-4 -7 -4 -15z"/>
<path d="M3265 3410 c3 -5 13 -10 21 -10 8 0 12 5 9 10 -3 6 -13 10 -21 10 -8
0 -12 -4 -9 -10z"/>
<path d="M3310 3390 c0 -6 7 -13 15 -17 24 -9 27 1 5 15 -13 8 -20 8 -20 2z"/>
<path d="M2163 3475 c-15 -17 -16 -25 -3 -25 5 0 14 9 20 20 12 23 1 26 -17 5z"/>
<path d="M1931 2344 c0 -11 3 -14 6 -6 3 7 2 16 -1 19 -3 4 -6 -2 -5 -13z"/>
<path d="M1923 2303 c9 -9 20 -13 24 -9 4 4 1 11 -7 16 -25 16 -35 11 -17 -7z"/>
<path d="M2675 5889 c-4 -6 -5 -12 -2 -15 2 -3 7 2 10 11 7 17 1 20 -8 4z"/>
<path d="M2660 5840 c-9 -6 -10 -10 -3 -10 6 0 15 5 18 10 8 12 4 12 -15 0z"/>
<path d="M0 5767 l0 -65 32 16 c18 9 42 17 53 18 11 1 33 9 49 17 l29 16 -38
7 c-20 3 -57 18 -81 31 l-44 25 0 -65z"/>
<path d="M342 5750 c9 -13 14 -16 17 -8 2 7 9 16 15 20 6 4 -1 8 -17 8 -25 0
-26 -2 -15 -20z"/>
<path d="M300 5729 c0 -5 5 -7 10 -4 6 3 10 8 10 11 0 2 -4 4 -10 4 -5 0 -10
-5 -10 -11z"/>
<path d="M372 5720 c0 -14 2 -19 5 -12 2 6 2 18 0 25 -3 6 -5 1 -5 -13z"/>
<path d="M351 5694 c0 -11 3 -14 6 -6 3 7 2 16 -1 19 -3 4 -6 -2 -5 -13z"/>
<path d="M0 5660 c0 -5 5 -10 10 -10 6 0 10 5 10 10 0 6 -4 10 -10 10 -5 0
-10 -4 -10 -10z"/>
<path d="M340 5661 c0 -6 5 -13 10 -16 6 -3 10 1 10 9 0 9 -4 16 -10 16 -5 0
-10 -4 -10 -9z"/>
<path d="M372 5650 c0 -14 2 -19 5 -12 2 6 2 18 0 25 -3 6 -5 1 -5 -13z"/>
<path d="M0 5486 c0 -23 4 -26 36 -26 19 0 33 4 29 9 -7 13 36 26 44 13 3 -5
15 -6 26 -2 l20 7 -20 6 c-11 3 -46 9 -77 13 -58 6 -58 6 -58 -20z"/>
<path d="M351 5477 c1 -21 3 -25 6 -12 3 11 10 23 15 26 5 3 3 9 -6 12 -13 5
-16 0 -15 -26z"/>
<path d="M300 5469 c0 -11 4 -18 10 -14 5 3 7 12 3 20 -7 21 -13 19 -13 -6z"/>
<path d="M568 5463 c7 -3 16 -2 19 1 4 3 -2 6 -13 5 -11 0 -14 -3 -6 -6z"/>
<path d="M365 5440 c-3 -5 1 -10 9 -10 9 0 16 5 16 10 0 6 -4 10 -9 10 -6 0
-13 -4 -16 -10z"/>
<path d="M355 5411 c-3 -5 -1 -12 5 -16 5 -3 10 1 10 9 0 18 -6 21 -15 7z"/>
<path d="M361 5364 c0 -11 3 -14 6 -6 3 7 2 16 -1 19 -3 4 -6 -2 -5 -13z"/>
<path d="M1920 5267 c0 -9 5 -19 10 -22 6 -3 10 -19 10 -36 0 -16 5 -29 11
-29 5 0 7 5 4 10 -3 6 -1 10 4 10 19 0 12 28 -14 56 -18 20 -25 23 -25 11z"/>
<path d="M4121 5254 c0 -11 3 -14 6 -6 3 7 2 16 -1 19 -3 4 -6 -2 -5 -13z"/>
<path d="M1870 5243 c0 -5 11 -24 25 -43 29 -39 32 -36 9 8 -15 32 -34 50 -34
35z"/>
<path d="M4010 5248 c0 -4 7 -25 15 -45 8 -21 26 -81 39 -133 14 -52 25 -86
25 -75 1 28 -46 200 -64 233 -8 15 -14 24 -15 20z"/>
<path d="M310 4903 l0 -56 -155 7 -155 7 0 -32 0 -32 139 8 c97 5 145 3 160
-4 21 -11 21 -10 21 74 0 47 -2 85 -5 85 -3 0 -5 -25 -5 -57z m-87 -80 c-7 -2
-21 -2 -30 0 -10 3 -4 5 12 5 17 0 24 -2 18 -5z"/>
<path d="M4092 4935 c0 -16 2 -22 5 -12 2 9 2 23 0 30 -3 6 -5 -1 -5 -18z"/>
<path d="M3154 4918 l-19 -23 23 19 c12 11 22 21 22 23 0 8 -8 2 -26 -19z"/>
<path d="M3782 4880 c0 -19 2 -27 5 -17 2 9 2 25 0 35 -3 9 -5 1 -5 -18z"/>
<path d="M4104 4695 c0 -146 -3 -219 -12 -239 -7 -16 -10 -31 -8 -34 3 -2 13
23 22 57 l17 61 43 -63 c42 -61 123 -156 108 -127 -4 8 -24 35 -45 60 -20 25
-51 73 -69 107 -27 55 -31 74 -36 175 -11 213 -20 215 -20 3z"/>
<path d="M3109 4873 c-13 -16 -12 -17 4 -4 16 13 21 21 13 21 -2 0 -10 -8 -17
-17z"/>
<path d="M3090 4816 c0 -3 9 -10 20 -16 11 -6 20 -8 20 -6 0 3 -9 10 -20 16
-11 6 -20 8 -20 6z"/>
<path d="M1920 4775 c0 -8 5 -15 10 -15 6 0 10 7 10 15 0 8 -4 15 -10 15 -5 0
-10 -7 -10 -15z"/>
<path d="M3107 4733 c-10 -9 -9 -23 1 -23 5 0 9 7 9 15 0 17 -1 18 -10 8z"/>
<path d="M2149 4628 c-40 -51 -77 -100 -82 -108 -21 -30 39 36 68 75 16 22 40
51 53 65 24 25 46 60 38 60 -2 0 -37 -42 -77 -92z"/>
<path d="M2083 4644 c-102 -119 -367 -335 -590 -480 -104 -68 -111 -74 -95
-74 16 0 273 174 365 246 138 109 400 364 374 364 -3 0 -27 -25 -54 -56z"/>
<path d="M3718 4610 c-9 -22 -15 -40 -13 -40 8 0 36 61 33 70 -2 5 -11 -9 -20
-30z"/>
<path d="M4230 4604 c0 -14 4 -23 9 -20 5 3 7 15 4 26 -7 28 -13 25 -13 -6z"/>
<path d="M1955 4414 c-49 -47 -142 -126 -205 -176 -63 -50 -104 -87 -90 -83
109 32 124 40 176 94 29 31 66 75 83 98 16 22 34 44 39 47 11 7 96 106 90 106
-1 -1 -43 -39 -93 -86z"/>
<path d="M820 4429 c-84 -14 -151 -52 -218 -123 -65 -70 -71 -88 -67 -198 2
-67 31 -135 69 -168 22 -18 19 0 -4 30 -11 14 -20 37 -20 52 0 17 -6 28 -17
31 -15 4 -16 5 -2 6 21 1 30 33 19 69 -5 15 -9 21 -9 15 -1 -18 -21 -16 -21 2
0 8 4 15 9 15 6 0 7 16 4 35 -5 30 -3 34 11 29 9 -3 16 -14 16 -23 0 -14 -2
-14 -10 -1 -11 17 -13 1 -4 -25 6 -13 9 -14 16 -3 7 9 8 3 4 -17 -4 -24 -1
-21 15 15 55 121 148 198 273 225 l61 13 -45 2 -45 2 54 9 c67 11 123 -3 150
-38 12 -14 21 -21 21 -14 0 20 -38 49 -77 60 -44 13 -105 12 -183 0z m-197
-210 c-4 -13 -9 -17 -15 -11 -11 11 -3 32 12 32 4 0 6 -9 3 -21z"/>
<path d="M975 4393 c11 -10 31 -29 44 -43 13 -14 20 -18 16 -10 -13 25 -39 51
-60 62 -20 9 -20 9 0 -9z"/>
<path d="M1630 4380 c0 -5 5 -10 10 -10 6 0 10 5 10 10 0 6 -4 10 -10 10 -5 0
-10 -4 -10 -10z"/>
<path d="M1082 4300 c-1 -25 -5 -56 -7 -70 l-6 -25 11 25 c6 13 9 45 7 70 l-3
45 -2 -45z"/>
<path d="M4221 4258 c65 -130 206 -309 307 -391 77 -62 104 -80 85 -55 -7 8
-9 19 -5 23 4 5 2 5 -4 2 -12 -7 -45 16 -108 71 -72 63 -278 350 -281 391 -1
21 -14 41 -26 41 -5 0 9 -37 32 -82z"/>
<path d="M1986 4299 c-21 -16 -36 -29 -32 -29 8 0 86 51 86 56 0 9 -18 0 -54
-27z"/>
<path d="M1047 4299 c4 -13 8 -18 11 -10 2 7 -1 18 -6 23 -8 8 -9 4 -5 -13z"/>
<path d="M3135 4300 c-24 -5 -27 -8 -13 -14 22 -10 50 -4 56 12 4 13 2 13 -43
2z"/>
<path d="M4240 4292 c14 -22 110 -100 110 -89 0 3 -28 29 -62 59 -35 29 -56
42 -48 30z"/>
<path d="M3239 4284 c19 -8 37 -12 40 -9 9 10 -22 25 -49 24 -23 0 -22 -1 9
-15z"/>
<path d="M880 4246 c0 -12 -5 -27 -12 -34 -9 -9 -9 -15 0 -24 7 -7 12 -21 12
-32 0 -17 2 -18 10 -6 8 12 10 11 10 -7 0 -16 4 -21 15 -17 8 4 15 18 15 34 0
21 6 29 25 34 29 7 24 26 -6 26 -13 0 -19 7 -19 24 0 18 -5 24 -25 24 -19 0
-25 -6 -25 -22z"/>
<path d="M3851 4199 c-7 -24 -24 -64 -37 -88 -23 -41 -23 -45 -7 -56 15 -11
19 -9 30 16 16 37 36 144 31 160 -2 6 -10 -8 -17 -32z"/>
<path d="M0 4174 c0 -25 1 -26 48 -20 26 4 71 8 101 11 62 5 81 15 28 15 -20
0 -37 5 -37 10 0 6 -30 10 -70 10 -69 0 -70 0 -70 -26z"/>
<path d="M3128 4183 c7 -3 16 -2 19 1 4 3 -2 6 -13 5 -11 0 -14 -3 -6 -6z"/>
<path d="M238 4173 c6 -2 18 -2 25 0 6 3 1 5 -13 5 -14 0 -19 -2 -12 -5z"/>
<path d="M4595 4165 c17 -7 48 -15 70 -18 32 -5 28 -2 -20 13 -67 22 -96 25
-50 5z"/>
<path d="M4437 4149 c7 -7 15 -10 18 -7 3 3 -2 9 -12 12 -14 6 -15 5 -6 -5z"/>
<path d="M1690 4141 c-8 -5 -34 -12 -57 -16 -23 -4 -62 -21 -85 -38 -58 -42
-277 -177 -305 -188 -18 -7 -21 -5 -16 9 5 14 3 15 -8 5 -7 -7 -30 -13 -51
-13 -25 0 -41 -5 -44 -15 -4 -10 -13 -13 -25 -10 -10 4 -62 -6 -116 -21 -142
-38 -234 -36 -319 6 -64 33 -108 73 -144 132 l-20 33 0 -50 c0 -56 18 -122 50
-186 28 -56 29 -56 41 -39 8 12 9 11 5 -5 -3 -14 3 -26 19 -38 14 -10 25 -14
25 -8 0 5 -6 12 -12 14 -10 4 -10 6 0 6 7 1 28 -10 46 -24 18 -14 36 -25 41
-25 7 0 -11 15 -63 55 -26 19 -72 70 -72 78 0 5 17 -6 38 -25 21 -19 62 -43
90 -53 30 -11 59 -30 68 -43 16 -24 16 -25 -10 -20 -14 3 -23 1 -20 -3 3 -5
18 -9 35 -9 16 0 29 -5 29 -11 0 -5 -6 -7 -12 -4 -7 4 -4 -1 7 -10 19 -15 18
-18 -50 -80 -69 -64 -88 -92 -24 -36 18 16 38 27 44 24 5 -4 7 -2 2 2 -8 9 32
40 72 56 17 7 26 6 31 -2 5 -7 13 -4 27 10 10 11 36 27 57 36 21 9 48 26 60
37 11 12 15 17 7 13 -9 -5 -12 -4 -7 3 4 7 14 12 23 12 21 0 146 69 156 87 4
7 15 13 23 13 17 0 21 3 84 58 48 42 90 68 103 64 5 -1 6 1 3 6 -3 5 6 14 20
21 30 13 45 14 24 1 -13 -9 -13 -10 0 -10 25 0 260 183 260 203 0 9 -11 9 -30
-2z m-1015 -339 c0 -18 -20 -15 -23 4 -3 10 1 15 10 12 7 -3 13 -10 13 -16z
m35 8 c0 -5 -4 -10 -10 -10 -5 0 -10 5 -10 10 0 6 5 10 10 10 6 0 10 -4 10
-10z m-90 -80 c0 -5 -2 -10 -4 -10 -3 0 -8 5 -11 10 -3 6 -1 10 4 10 6 0 11
-4 11 -10z"/>
<path d="M3515 4057 c-69 -72 -82 -91 -102 -152 -13 -38 -23 -72 -23 -74 0 -4
56 56 81 87 10 14 19 21 19 16 0 -5 17 25 38 66 51 100 65 124 77 132 7 5 7 8
0 7 -5 0 -46 -37 -90 -82z"/>
<path d="M4470 4134 c0 -7 85 -42 155 -64 173 -54 228 -76 345 -137 119 -61
185 -108 175 -123 -2 -4 13 -21 35 -39 22 -18 40 -38 40 -45 0 -7 -17 -33 -38
-56 l-37 -42 -105 2 c-58 1 -109 2 -115 2 -16 0 -57 -11 -63 -16 -8 -8 46 -26
78 -26 40 0 60 -9 60 -29 0 -13 2 -14 9 -2 5 8 18 15 28 16 107 9 184 48 198
102 l7 28 12 -23 c7 -13 23 -29 36 -35 13 -7 39 -34 57 -61 27 -39 34 -58 32
-88 -2 -28 2 -42 16 -54 11 -8 15 -13 8 -10 -6 4 -14 3 -17 -2 -3 -5 2 -9 12
-9 40 0 92 102 92 180 0 47 -30 137 -45 137 -3 0 -1 -9 5 -19 14 -27 13 -30
-10 -24 -11 3 -27 14 -34 24 -8 13 -19 17 -30 13 -14 -5 -16 -2 -10 20 5 22
-2 34 -50 81 -30 30 -57 55 -60 55 -3 0 -16 11 -30 25 -15 15 -31 22 -41 19
-12 -5 -3 -18 42 -58 78 -69 124 -118 118 -125 -3 -3 -29 18 -56 47 -59 60
-189 149 -274 187 -50 23 -315 115 -330 115 -2 0 -2 -7 2 -16 7 -19 -15 -14
-134 26 -46 15 -83 26 -83 24z"/>
<path d="M4558 4133 c7 -3 16 -2 19 1 4 3 -2 6 -13 5 -11 0 -14 -3 -6 -6z"/>
<path d="M4600 4120 c8 -5 22 -9 30 -9 10 0 8 3 -5 9 -27 12 -43 12 -25 0z"/>
<path d="M900 4091 c0 -6 4 -13 10 -16 6 -3 7 1 4 9 -7 18 -14 21 -14 7z"/>
<path d="M880 4073 c0 -13 5 -23 10 -23 13 0 13 11 0 30 -8 12 -10 11 -10 -7z"/>
<path d="M3103 4059 c-7 -18 -11 -34 -9 -37 7 -7 27 39 24 55 -2 9 -8 2 -15
-18z"/>
<path d="M3495 4070 c-3 -5 -16 -10 -29 -10 -13 0 -30 -8 -40 -19 -15 -16 -15
-19 -1 -31 14 -12 22 -8 58 28 23 23 36 42 30 42 -7 0 -15 -4 -18 -10z"/>
<path d="M1324 4054 c-18 -14 -18 -14 6 -3 31 14 36 19 24 19 -6 0 -19 -7 -30
-16z"/>
<path d="M4505 4023 c5 -44 3 -52 -10 -47 -10 4 -15 0 -15 -13 0 -29 10 -34
35 -17 20 13 23 13 29 -1 3 -9 6 -27 6 -39 0 -21 9 -28 63 -54 8 -4 3 67 -8
111 -8 29 -12 32 -34 18 -9 -6 -12 -18 -8 -32 6 -23 5 -23 -8 -5 -8 11 -15 28
-15 37 0 10 -4 21 -10 24 -5 3 -14 20 -20 38 -8 28 -9 25 -5 -20z"/>
<path d="M4526 4052 c-2 -4 -1 -14 5 -22 7 -12 9 -10 9 8 0 23 -5 28 -14 14z"/>
<path d="M3357 4006 c7 -53 13 -59 13 -13 0 19 6 37 12 39 7 3 3 7 -9 10 -19
5 -20 2 -16 -36z"/>
<path d="M4230 4034 c0 -6 7 -19 15 -30 8 -10 14 -14 14 -9 0 6 -6 19 -14 29
-8 11 -15 15 -15 10z"/>
<path d="M5083 4019 c22 -11 41 -18 44 -15 4 3 -10 13 -30 21 -51 21 -59 18
-14 -6z"/>
<path d="M4120 3980 c0 -5 7 -10 16 -10 8 0 12 5 9 10 -3 6 -10 10 -16 10 -5
0 -9 -4 -9 -10z"/>
<path d="M4260 3971 c0 -6 4 -13 10 -16 6 -3 7 1 4 9 -7 18 -14 21 -14 7z"/>
<path d="M5100 3970 c19 -13 30 -13 30 0 0 6 -10 10 -22 10 -19 0 -20 -2 -8
-10z"/>
<path d="M3027 3953 c-4 -3 -7 -11 -7 -17 0 -6 5 -5 12 2 6 6 9 14 7 17 -3 3
-9 2 -12 -2z"/>
<path d="M4660 3946 c0 -8 4 -17 9 -21 6 -3 7 -27 4 -54 -5 -42 -3 -50 18 -64
21 -16 24 -15 43 5 10 11 20 36 20 54 1 18 4 36 8 39 3 3 4 15 1 26 -6 21 -33
27 -33 7 0 -7 -5 -5 -11 6 -9 15 -13 16 -21 5 -7 -11 -11 -11 -15 -1 -7 17
-23 15 -23 -2z m42 -93 c-3 -26 -7 -32 -13 -21 -4 8 -5 32 -2 54 8 48 21 19
15 -33z"/>
<path d="M4770 3944 c0 -13 8 -24 18 -26 11 -3 19 0 19 8 0 8 -3 12 -5 9 -3
-3 -11 3 -18 13 -12 16 -13 15 -14 -4z"/>
<path d="M5220 3945 c0 -2 10 -10 23 -16 20 -11 21 -11 8 4 -13 16 -31 23 -31
12z"/>
<path d="M4292 3923 c-9 -4 -6 -16 10 -46 13 -23 26 -44 29 -47 3 -3 14 -21
24 -40 21 -42 125 -173 125 -157 0 3 -13 32 -30 64 -16 31 -30 61 -30 66 0 14
-81 118 -96 124 -8 3 -13 12 -10 19 6 16 -4 23 -22 17z"/>
<path d="M5270 3911 c0 -6 5 -11 11 -11 6 0 34 -24 63 -52 73 -75 102 -94 36
-24 -62 65 -110 103 -110 87z"/>
<path d="M945 3882 c-22 -8 -76 -18 -120 -22 l-80 -7 80 -1 c65 -1 90 4 130
23 56 26 51 31 -10 7z"/>
<path d="M4789 3891 c10 -7 11 -9 1 -13 -21 -7 -20 -37 0 -43 10 -3 20 -12 22
-20 2 -8 10 -4 22 13 11 15 16 24 11 20 -5 -5 -16 6 -26 22 -11 17 -24 30 -31
30 -10 0 -10 -2 1 -9z"/>
<path d="M370 3827 c0 -25 5 -49 11 -52 7 -5 8 8 3 41 -9 64 -14 68 -14 11z"/>
<path d="M4413 3835 c1 -18 8 -30 17 -31 34 -2 39 -5 45 -23 3 -11 13 -22 22
-25 14 -6 14 -4 2 11 -13 16 -12 16 14 0 16 -10 33 -17 38 -15 10 3 -106 88
-121 88 -5 0 -11 6 -14 13 -3 6 -4 -1 -3 -18z"/>
<path d="M4901 3835 c-1 -12 -20 -32 -46 -50 -50 -34 -53 -48 -3 -17 18 11 71
27 118 35 l85 15 -72 1 c-59 1 -72 4 -76 19 -4 14 -5 14 -6 -3z"/>
<path d="M5078 3813 c7 -3 16 -2 19 1 4 3 -2 6 -13 5 -11 0 -14 -3 -6 -6z"/>
<path d="M350 3780 c0 -11 4 -20 9 -20 5 0 7 9 4 20 -3 11 -7 20 -9 20 -2 0
-4 -9 -4 -20z"/>
<path d="M4430 3780 c0 -5 5 -10 11 -10 5 0 7 5 4 10 -3 6 -8 10 -11 10 -2 0
-4 -4 -4 -10z"/>
<path d="M4584 3731 c9 -13 86 -54 92 -48 2 2 -19 16 -47 32 -29 15 -49 23
-45 16z"/>
<path d="M352 3710 c0 -14 2 -19 5 -12 2 6 2 18 0 25 -3 6 -5 1 -5 -13z"/>
<path d="M348 3649 c-1 -19 -1 -62 0 -96 1 -34 -3 -65 -8 -68 -9 -6 -15 35
-11 78 1 9 -2 17 -8 17 -7 0 -10 -22 -8 -57 3 -49 6 -57 27 -65 40 -15 50 -3
50 54 0 29 -4 60 -9 67 -6 9 -6 22 0 33 8 14 5 25 -10 45 l-21 26 -2 -34z"/>
<path d="M4728 3659 c24 -11 46 -18 49 -15 6 5 -63 36 -81 36 -6 -1 9 -10 32
-21z"/>
<path d="M4198 3633 c7 -3 16 -2 19 1 4 3 -2 6 -13 5 -11 0 -14 -3 -6 -6z"/>
<path d="M4810 3630 c8 -5 22 -9 30 -9 10 0 8 3 -5 9 -27 12 -43 12 -25 0z"/>
<path d="M275 3609 c-22 -4 -93 -8 -157 -8 -113 -1 -118 -2 -118 -22 0 -17 5
-20 27 -15 55 11 189 26 246 27 40 2 57 6 57 16 0 7 -3 12 -7 12 -5 -1 -26 -5
-48 -10z"/>
<path d="M4395 3590 c21 -74 202 -361 215 -341 4 8 22 -8 49 -43 65 -86 142
-170 209 -227 34 -29 60 -54 57 -57 -3 -3 -13 2 -22 10 -37 32 -47 31 -22 -3
72 -95 133 -186 145 -215 15 -36 18 -246 3 -222 -7 10 -9 8 -10 -7 -1 -11 -1
-25 0 -32 1 -7 -16 -21 -38 -33 -43 -21 -113 -26 -155 -10 -40 15 -31 -4 14
-29 45 -25 121 -37 175 -27 30 6 36 11 32 27 -3 10 -1 16 4 13 12 -7 40 59 48
116 l6 45 23 -60 c42 -111 48 -277 15 -415 -15 -66 -45 -134 -62 -145 -5 -3
-16 -19 -24 -35 l-15 -29 23 15 c26 17 75 77 75 92 0 5 7 15 15 22 8 7 15 21
15 31 0 11 6 19 13 19 7 0 13 15 15 36 1 19 7 44 13 55 12 24 32 15 24 -11 -3
-10 -2 -21 3 -24 5 -3 23 29 39 72 16 42 33 76 38 75 6 -2 12 -50 15 -107 6
-122 20 -153 21 -45 0 68 15 268 23 314 2 11 4 34 5 52 0 17 8 38 16 47 8 8
15 23 15 34 0 35 -50 193 -80 253 -16 33 -27 59 -24 59 3 0 29 -20 57 -45 28
-24 53 -43 54 -41 8 8 -61 98 -120 157 -75 75 -206 163 -347 234 -167 84 -212
108 -264 144 -32 22 -51 30 -55 22 -5 -7 -14 -5 -29 9 -12 12 -22 18 -22 14 0
-4 -11 3 -25 16 -28 27 -33 45 -9 36 14 -5 15 -4 4 9 -7 8 -17 12 -23 8 -5 -3
-7 -1 -4 5 4 5 -6 22 -23 35 -16 14 -30 30 -30 34 0 5 -7 18 -15 28 -9 11 -27
36 -41 55 -22 30 -25 31 -19 10z m301 -347 c18 -25 19 -50 1 -31 -15 15 -29
48 -20 48 3 0 12 -8 19 -17z m172 -62 c86 -45 108 -63 104 -86 -2 -16 -1 -17
7 -5 12 17 14 10 5 -14 -3 -9 -10 -13 -15 -10 -5 3 -6 -2 -3 -10 7 -17 -11
-22 -19 -6 -3 6 -4 5 -3 -2 2 -7 14 -13 27 -13 25 0 39 -29 21 -47 -6 -6 -20
4 -38 29 -16 21 -57 73 -92 116 -34 42 -60 77 -57 77 3 0 31 -13 63 -29z m146
-217 c9 -3 16 -14 16 -23 0 -9 5 -22 12 -29 9 -9 9 -15 -1 -24 -11 -10 -13
-10 -7 0 4 6 3 12 -2 12 -5 0 -12 14 -16 31 -3 17 -10 28 -16 24 -5 -3 -10 -1
-10 4 0 13 3 13 24 5z m238 -58 c8 -16 4 -15 -16 6 -14 15 -26 30 -26 34 0 11
31 -18 42 -40z m-172 -85 c-1 -12 -5 -10 -20 8 -26 30 -26 49 0 26 11 -10 20
-25 20 -34z m10 -31 c0 -5 -2 -10 -4 -10 -3 0 -8 5 -11 10 -3 6 -1 10 4 10 6
0 11 -4 11 -10z m147 -587 c-3 -10 -5 -2 -5 17 0 19 2 27 5 18 2 -10 2 -26 0
-35z"/>
<path d="M815 3501 c-98 -45 -298 -255 -377 -395 -26 -44 -29 -40 -10 14 4 11
2 12 -7 4 -6 -5 -21 -37 -33 -70 -25 -71 -30 -205 -10 -275 15 -51 73 -133
112 -158 20 -12 17 -7 -12 26 -64 73 -71 95 -65 202 3 58 13 118 25 151 l19
55 6 -45 c4 -25 9 -74 12 -108 8 -82 61 -195 121 -259 25 -27 40 -38 34 -26
-7 15 -7 24 1 28 6 4 7 19 4 36 -5 21 -2 31 8 35 13 5 24 39 32 99 5 34 21 89
33 112 7 12 12 28 11 35 -1 21 -48 -84 -48 -109 -1 -36 -17 -27 -34 20 -21 53
-27 146 -17 265 7 75 15 107 40 158 41 83 66 113 148 170 107 75 108 82 7 35z"/>
<path d="M5301 3483 c-10 -26 -10 -27 4 -9 8 11 15 23 15 28 0 15 -7 8 -19
-19z"/>
<path d="M0 3470 c0 -5 7 -10 16 -10 8 0 12 5 9 10 -3 6 -10 10 -16 10 -5 0
-9 -4 -9 -10z"/>
<path d="M583 3378 c-43 -46 -93 -116 -93 -133 0 -5 16 15 36 45 20 30 53 72
72 93 20 20 34 37 31 37 -3 0 -23 -19 -46 -42z"/>
<path d="M5150 3348 c-26 -12 -80 -24 -126 -29 -45 -4 -90 -12 -100 -19 -16
-10 -30 -7 -78 14 -33 15 -61 24 -63 22 -10 -10 57 -44 107 -55 67 -15 100
-30 100 -47 0 -20 50 -73 64 -68 15 6 68 -34 61 -46 -3 -4 3 -7 13 -6 9 0 16
-5 14 -12 -1 -8 2 -11 8 -7 6 4 17 1 25 -5 17 -14 72 -6 100 14 17 12 13 17
-56 49 -103 50 -158 81 -159 88 0 4 26 9 58 11 62 5 148 41 197 83 l30 26 -40
-25 c-46 -30 -51 -31 -71 -11 -9 8 -13 15 -9 15 4 0 0 7 -9 15 -8 8 -16 15
-18 14 -2 0 -23 -10 -48 -21z m-102 -173 c-3 -3 -9 2 -12 12 -6 14 -5 15 5 6
7 -7 10 -15 7 -18z"/>
<path d="M245 3340 c-3 -6 1 -7 9 -4 18 7 21 14 7 14 -6 0 -13 -4 -16 -10z"/>
<path d="M1630 3325 c-8 -9 -8 -15 -2 -15 12 0 26 19 19 26 -2 2 -10 -2 -17
-11z"/>
<path d="M3680 3332 c0 -12 19 -26 26 -19 2 2 -2 10 -11 17 -9 8 -15 8 -15 2z"/>
<path d="M785 3094 c-9 -15 -12 -23 -6 -20 11 7 35 46 28 46 -3 0 -12 -12 -22
-26z"/>
<path d="M5490 3112 c0 -5 17 -12 38 -16 40 -6 188 -8 181 -2 -2 2 -38 7 -79
10 -41 4 -90 9 -107 12 -19 4 -33 2 -33 -4z"/>
<path d="M1140 3100 c-9 -6 -10 -10 -3 -10 6 0 15 5 18 10 8 12 4 12 -15 0z"/>
<path d="M230 3045 c0 -14 5 -25 10 -25 6 0 10 11 10 25 0 14 -4 25 -10 25 -5
0 -10 -11 -10 -25z"/>
<path d="M740 3020 c-6 -11 -8 -20 -6 -20 3 0 10 9 16 20 6 11 8 20 6 20 -3 0
-10 -9 -16 -20z"/>
<path d="M955 2980 c3 -5 8 -10 11 -10 2 0 4 5 4 10 0 6 -5 10 -11 10 -5 0 -7
-4 -4 -10z"/>
<path d="M5356 2919 c33 -35 74 -86 89 -114 16 -27 32 -53 37 -56 5 -3 6 -13
2 -23 -4 -11 4 -30 23 -54 88 -109 122 -255 89 -381 -18 -69 -2 -52 35 39 29
72 52 201 30 170 -9 -12 -11 -11 -11 10 0 13 -17 64 -37 113 -50 121 -152 239
-298 346 -11 8 7 -14 41 -50z m159 -209 c3 -5 1 -10 -4 -10 -6 0 -11 5 -11 10
0 6 2 10 4 10 3 0 8 -4 11 -10z m25 -21 c0 -11 -4 -18 -10 -14 -5 3 -7 12 -3
20 7 21 13 19 13 -6z"/>
<path d="M906 2895 c-3 -8 -1 -15 4 -15 6 0 10 7 10 15 0 8 -2 15 -4 15 -2 0
-6 -7 -10 -15z"/>
<path d="M4848 2788 c-2 -7 -1 -62 2 -123 4 -60 7 -91 8 -67 2 53 22 47 22 -6
0 -25 3 -33 9 -23 5 7 14 10 20 7 18 -12 13 77 -6 115 -16 31 -18 32 -21 12
-2 -13 -8 -23 -13 -23 -8 0 -14 47 -11 98 1 24 -4 29 -10 10z m62 -128 c0 -5
-4 -10 -10 -10 -5 0 -10 5 -10 10 0 6 5 10 10 10 6 0 10 -4 10 -10z"/>
<path d="M4811 2733 c-1 -17 4 -35 9 -38 12 -7 12 22 0 50 -7 17 -9 15 -9 -12z"/>
<path d="M281 2723 c-1 -12 4 -25 9 -28 12 -7 12 2 0 30 -8 19 -9 19 -9 -2z"/>
<path d="M5461 2674 c0 -11 3 -14 6 -6 3 7 2 16 -1 19 -3 4 -6 -2 -5 -13z"/>
<path d="M805 2633 c-32 -8 -48 -25 -33 -34 9 -6 8 -12 -5 -27 -13 -14 -14
-21 -5 -30 19 -19 -7 -40 -31 -25 -10 7 -21 9 -24 6 -9 -8 4 -33 18 -33 7 0
15 -9 18 -20 3 -11 2 -18 -3 -15 -4 3 -11 -2 -14 -11 -8 -21 -9 -20 12 -21 16
-1 36 24 69 87 7 14 22 39 32 57 11 17 17 40 14 52 -5 21 -11 23 -48 14z m25
-38 c0 -8 -4 -15 -10 -15 -5 0 -7 7 -4 15 4 8 8 15 10 15 2 0 4 -7 4 -15z"/>
<path d="M5472 2600 c0 -14 2 -19 5 -12 2 6 2 18 0 25 -3 6 -5 1 -5 -13z"/>
<path d="M604 2581 c0 -11 6 -17 13 -14 6 3 9 11 6 19 -7 20 -19 17 -19 -5z"/>
<path d="M697 2473 c-17 -3 -26 -9 -23 -16 3 -7 9 -20 12 -29 9 -25 27 -23 19
2 -3 11 -2 20 3 20 6 0 12 7 16 15 3 8 4 14 3 14 -1 -1 -15 -4 -30 -6z"/>
<path d="M5399 2383 c-5 -14 -8 -34 -7 -42 2 -9 9 3 15 27 12 47 8 56 -8 15z"/>
<path d="M707 2384 c5 -14 -26 -33 -44 -27 -8 3 -13 -4 -13 -17 0 -12 -4 -18
-10 -15 -6 4 -10 -8 -10 -29 0 -36 6 -42 26 -28 11 8 28 43 26 54 -1 4 5 5 12
2 11 -4 13 0 9 15 -3 12 -1 21 5 21 5 0 12 8 14 18 3 11 0 19 -7 19 -7 0 -11
-6 -8 -13z m-42 -74 c-3 -5 -12 -10 -18 -10 -7 0 -6 4 3 10 19 12 23 12 15 0z"/>
<path d="M4899 2262 c-1 -17 -3 -21 -6 -9 -8 29 -23 8 -16 -23 3 -19 1 -30 -6
-30 -6 0 -11 9 -11 21 0 11 -5 17 -10 14 -6 -3 -7 -18 -3 -33 6 -24 4 -25 -9
-14 -19 15 -31 2 -22 -23 4 -10 1 -21 -6 -25 -9 -6 -11 -25 -5 -75 8 -81 16
-79 17 6 1 49 3 57 8 34 4 -16 8 -48 10 -70 1 -32 3 -36 10 -20 7 17 9 17 9 3
1 -10 5 -18 10 -18 5 0 13 -10 17 -22 l6 -21 14 24 c7 13 13 18 14 12 0 -7 6
-13 14 -13 8 0 16 6 19 13 3 9 7 9 19 -1 18 -15 27 1 29 46 0 24 1 25 9 7 8
-19 9 -19 9 2 1 12 15 37 31 55 17 18 31 43 32 55 3 51 3 58 -7 58 -5 0 -20
10 -32 23 -13 12 -28 22 -35 22 -6 0 -20 7 -30 17 -10 9 -18 11 -18 5 0 -7
-10 -8 -30 -2 -28 8 -30 7 -31 -18z"/>
<path d="M221 2223 c-16 -17 -11 -25 8 -14 7 5 12 13 10 19 -2 6 -10 4 -18 -5z"/>
<path d="M5480 2159 c-34 -22 -60 -42 -58 -44 12 -12 78 19 108 50 45 46 27
44 -50 -6z"/>
<path d="M254 2169 c-3 -5 6 -9 20 -9 14 0 26 -6 26 -12 0 -9 3 -8 9 2 6 8 8
17 6 21 -7 10 -54 8 -61 -2z"/>
<path d="M378 2140 c2 -22 7 -38 11 -36 9 6 1 76 -8 76 -4 0 -5 -18 -3 -40z"/>
<path d="M440 2165 c0 -8 2 -15 4 -15 2 0 6 7 10 15 3 8 1 15 -4 15 -6 0 -10
-7 -10 -15z"/>
<path d="M410 2124 c0 -8 9 -14 19 -14 30 0 34 17 6 22 -17 4 -25 1 -25 -8z"/>
<path d="M287 2113 c-13 -12 -7 -23 13 -23 11 0 20 7 20 15 0 15 -21 21 -33 8z"/>
<path d="M5006 1854 c-17 -12 -17 -14 -4 -14 9 0 20 5 23 11 11 17 2 18 -19 3z"/>
<path d="M3003 1384 l-28 -25 33 22 c17 13 32 24 32 26 0 8 -11 1 -37 -23z"/>
<path d="M2942 1338 c-53 -58 -65 -121 -33 -175 36 -58 104 -133 122 -133 5 0
-11 20 -35 44 -24 24 -56 62 -71 84 -23 34 -26 47 -20 81 4 22 20 57 36 77 16
20 29 38 29 40 0 8 -7 3 -28 -18z"/>
<path d="M3825 1070 c-3 -5 -5 -10 -3 -11 26 -6 39 -5 45 3 3 7 1 8 -5 4 -7
-4 -12 -2 -12 3 0 14 -17 14 -25 1z"/>
<path d="M3835 1029 c-4 -6 -5 -12 -2 -15 2 -3 7 2 10 11 7 17 1 20 -8 4z"/>
<path d="M2952 910 c0 -14 2 -19 5 -12 2 6 2 18 0 25 -3 6 -5 1 -5 -13z"/>
<path d="M2963 845 c0 -22 2 -30 4 -17 2 12 2 30 0 40 -3 9 -5 -1 -4 -23z"/>
<path d="M4316 826 c-39 -39 -69 -90 -59 -99 3 -4 13 7 22 23 9 16 31 46 50
65 44 47 33 57 -13 11z"/>
<path d="M5960 726 c0 -9 5 -16 10 -16 6 0 10 4 10 9 0 6 -4 13 -10 16 -5 3
-10 -1 -10 -9z"/>
<path d="M2703 689 c-34 -23 -43 -36 -43 -59 0 -31 38 -83 74 -101 13 -8 8 3
-16 28 -63 65 -52 97 47 151 l20 11 -20 0 c-11 0 -39 -13 -62 -30z"/>
<path d="M5970 660 c0 -19 3 -21 12 -12 9 9 9 15 0 24 -9 9 -12 7 -12 -12z"/>
<path d="M6040 639 c0 -24 5 -51 10 -59 7 -10 8 2 4 40 -8 69 -14 77 -14 19z"/>
<path d="M4822 385 c-1 -27 -5 -61 -7 -75 l-6 -25 11 25 c6 13 9 47 7 75 l-3
50 -2 -50z"/>
<path d="M4693 227 c-50 -38 -58 -53 -33 -60 12 -3 17 0 14 8 -3 7 14 29 37
49 53 45 39 47 -18 3z"/>
<path d="M5236 136 c-3 -13 -9 -32 -12 -43 -5 -12 -4 -15 3 -8 15 14 34 75 24
75 -5 0 -12 -11 -15 -24z"/>
</g>
</svg>
